<svg width="16" height="16" viewBox="0 0 16 16" fill="none" xmlns="http://www.w3.org/2000/svg">
<path d="M7.83066 1.41013C9.92291 1.41013 10.1707 1.41931 10.9935 1.45601C11.7582 1.48966 12.1712 1.61813 12.4465 1.72519C12.8105 1.8659 13.0735 2.03719 13.3458 2.30943C13.6211 2.58473 13.7893 2.84473 13.93 3.20873C14.0371 3.48403 14.1655 3.90004 14.1992 4.66169C14.2359 5.48758 14.2451 5.73535 14.2451 7.82454C14.2451 9.9168 14.2359 10.1646 14.1992 10.9874C14.1655 11.7521 14.0371 12.1651 13.93 12.4403C13.7893 12.8044 13.618 13.0674 13.3458 13.3397C13.0705 13.6149 12.8105 13.7832 12.4465 13.9239C12.1712 14.031 11.7552 14.1594 10.9935 14.1931C10.1676 14.2298 9.91986 14.239 7.83066 14.239C5.73841 14.239 5.49064 14.2298 4.66781 14.1931C3.90309 14.1594 3.49015 14.031 3.21485 13.9239C2.85085 13.7832 2.58779 13.6119 2.31555 13.3397C2.04025 13.0644 1.87202 12.8044 1.73131 12.4403C1.62425 12.1651 1.49578 11.749 1.46213 10.9874C1.42542 10.1615 1.41625 9.91374 1.41625 7.82454C1.41625 5.73229 1.42542 5.48452 1.46213 4.66169C1.49578 3.89698 1.62425 3.48403 1.73131 3.20873C1.87202 2.84473 2.04331 2.58167 2.31555 2.30943C2.59085 2.03414 2.85085 1.8659 3.21485 1.72519C3.49015 1.61813 3.90615 1.48966 4.66781 1.45601C5.49064 1.41931 5.73841 1.41013 7.83066 1.41013ZM7.83066 0C5.70476 0 5.43864 0.00917655 4.60357 0.0458828C3.77156 0.082589 3.19956 0.217178 2.70402 0.409886C2.18708 0.61177 1.74966 0.87789 1.31531 1.31531C0.87789 1.74966 0.61177 2.18708 0.409886 2.70097C0.217178 3.19956 0.082589 3.7685 0.0458828 4.60051C0.00917656 5.43864 0 5.70476 0 7.83066C0 9.95656 0.00917656 10.2227 0.0458828 11.0577C0.082589 11.8898 0.217178 12.4618 0.409886 12.9573C0.61177 13.4742 0.87789 13.9117 1.31531 14.346C1.74966 14.7804 2.18708 15.0495 2.70097 15.2484C3.19956 15.4411 3.7685 15.5757 4.60051 15.6124C5.43558 15.6491 5.7017 15.6583 7.8276 15.6583C9.9535 15.6583 10.2196 15.6491 11.0547 15.6124C11.8867 15.5757 12.4587 15.4411 12.9542 15.2484C13.4681 15.0495 13.9055 14.7804 14.3399 14.346C14.7743 13.9117 15.0434 13.4742 15.2423 12.9604C15.435 12.4618 15.5696 11.8928 15.6063 11.0608C15.643 10.2257 15.6521 9.95962 15.6521 7.83372C15.6521 5.70782 15.643 5.4417 15.6063 4.60663C15.5696 3.77462 15.435 3.20262 15.2423 2.70708C15.0495 2.18708 14.7834 1.74966 14.346 1.31531C13.9117 0.880949 13.4742 0.61177 12.9604 0.412945C12.4618 0.220237 11.8928 0.0856478 11.0608 0.0489416C10.2227 0.00917656 9.95656 0 7.83066 0Z" fill="#000D0D"/>
<path d="M7.83105 0.391602C9.95441 0.391603 10.2135 0.400144 11.042 0.439453H11.0439C11.8372 0.474482 12.3639 0.602277 12.8193 0.77832C13.2853 0.958651 13.6759 1.19838 14.0693 1.5918L14.0703 1.59277C14.4651 1.98482 14.701 2.37327 14.875 2.84277L14.8779 2.84863C15.0536 3.3003 15.1808 3.83013 15.2158 4.62402C15.2521 5.45041 15.2607 5.71032 15.2607 7.83398C15.2607 9.95761 15.2522 10.2174 15.2158 11.0439C15.1808 11.8372 15.053 12.3639 14.877 12.8193C14.6966 13.2853 14.4569 13.6759 14.0635 14.0693C13.67 14.4628 13.2795 14.7034 12.8135 14.8838H12.8125C12.3608 15.0594 11.831 15.1867 11.0371 15.2217C10.2109 15.258 9.95067 15.2666 7.82715 15.2666C5.70411 15.2666 5.44429 15.258 4.61816 15.2217C3.8247 15.1867 3.29735 15.0599 2.8418 14.8838C2.37573 14.7034 1.9853 14.4628 1.5918 14.0693L1.59082 14.0684L1.4502 13.9209C1.18234 13.6263 0.99499 13.3274 0.845703 12.9883L0.774414 12.8154C0.598783 12.3638 0.471546 11.8339 0.436523 11.04C0.400213 10.214 0.391603 9.9541 0.391602 7.83105C0.391602 5.70767 0.400207 5.44741 0.436523 4.61816C0.4715 3.82536 0.597592 3.29806 0.773438 2.84277L0.774414 2.84375C0.958522 2.37522 1.19588 1.98496 1.59082 1.59277L1.59277 1.59082C1.98489 1.19595 2.37448 0.957496 2.8457 0.773438C3.29732 0.59784 3.82735 0.471542 4.62109 0.436523C5.44738 0.400204 5.70749 0.391602 7.83105 0.391602ZM7.83105 1.01855C6.25986 1.01855 5.72374 1.02375 5.20312 1.04199L4.65039 1.06543C4.04652 1.09212 3.63789 1.17569 3.33887 1.26758L3.07324 1.36035C2.65934 1.52041 2.35332 1.71895 2.03906 2.0332C1.76695 2.30534 1.57879 2.57593 1.42871 2.91699L1.36621 3.06738C1.24421 3.38123 1.10685 3.83626 1.07129 4.64453C1.03421 5.47567 1.02539 5.73033 1.02539 7.82422C1.02539 9.91561 1.0342 10.1705 1.07129 11.0049C1.10688 11.81 1.24412 12.268 1.36621 12.582C1.52628 12.996 1.7248 13.302 2.03906 13.6162C2.34995 13.9271 2.65913 14.1279 3.07324 14.2881V14.2891C3.34782 14.3958 3.73049 14.5145 4.36328 14.5664L4.65039 14.584C5.48178 14.6211 5.73665 14.6299 7.83105 14.6299C9.92196 14.6299 10.1765 14.6211 11.0107 14.584C11.6147 14.5573 12.0232 14.4728 12.3223 14.3809L12.5879 14.2891C13.0019 14.129 13.3078 13.9305 13.6221 13.6162C13.933 13.3053 14.1347 12.9962 14.2949 12.582C14.4169 12.2682 14.5542 11.8133 14.5898 11.0049C14.6269 10.1735 14.6367 9.91864 14.6367 7.82422C14.6367 5.73329 14.6269 5.47873 14.5898 4.64453C14.5632 4.04075 14.4796 3.63203 14.3877 3.33301L14.2949 3.06738C14.1348 2.65337 13.9364 2.34751 13.6221 2.0332C13.3498 1.76097 13.0795 1.57199 12.7383 1.42188L12.5879 1.36035C12.3133 1.25359 11.9307 1.13486 11.2979 1.08301L11.0107 1.06543C10.1795 1.02835 9.92495 1.01856 7.83105 1.01855Z" stroke="#000D0D" stroke-opacity="0.1" stroke-width="0.782607"/>
<path d="M7.83001 3.80859C5.60928 3.80859 3.80762 5.61026 3.80762 7.83098C3.80762 10.0517 5.60928 11.8534 7.83001 11.8534C10.0507 11.8534 11.8524 10.0517 11.8524 7.83098C11.8524 5.61026 10.0507 3.80859 7.83001 3.80859ZM7.83001 10.4402C6.38929 10.4402 5.22081 9.2717 5.22081 7.83098C5.22081 6.39026 6.38929 5.22178 7.83001 5.22178C9.27073 5.22178 10.4392 6.39026 10.4392 7.83098C10.4392 9.2717 9.27073 10.4402 7.83001 10.4402Z" fill="#000D0D"/>
<path d="M7.83008 4.2002C9.83466 4.20023 11.4609 5.82646 11.4609 7.83105C11.4609 9.83561 9.83464 11.4619 7.83008 11.4619C5.82549 11.4619 4.19926 9.83564 4.19922 7.83105C4.19922 5.82644 5.82546 4.2002 7.83008 4.2002ZM7.83008 4.83008C6.17325 4.83008 4.8291 6.17422 4.8291 7.83105C4.82914 9.48785 6.17327 10.8311 7.83008 10.8311C9.48685 10.831 10.83 9.48783 10.8301 7.83105C10.8301 6.17425 9.48688 4.83012 7.83008 4.83008Z" stroke="#000D0D" stroke-opacity="0.1" stroke-width="0.782607"/>
<path d="M12.9514 3.64903C12.9514 4.16904 12.5293 4.5881 12.0123 4.5881C11.4923 4.5881 11.0732 4.16598 11.0732 3.64903C11.0732 3.12902 11.4954 2.70996 12.0123 2.70996C12.5293 2.70996 12.9514 3.13208 12.9514 3.64903Z" fill="#000D0D"/>
<path d="M12.0127 3.10156C12.3134 3.10177 12.5605 3.34871 12.5605 3.64941C12.5603 3.95217 12.3141 4.19706 12.0127 4.19727C11.7098 4.19727 11.4651 3.9509 11.4648 3.64941C11.4648 3.34635 11.711 3.10156 12.0127 3.10156Z" stroke="#000D0D" stroke-opacity="0.1" stroke-width="0.782607"/>
</svg>
