<svg width="16" height="16" viewBox="0 0 16 16" fill="none" xmlns="http://www.w3.org/2000/svg">
<path d="M9.31511 6.62764L15.142 0H13.7612L8.70181 5.75464L4.66079 0H0L6.11073 8.70207L0 15.6521H1.38086L6.72377 9.57507L10.9913 15.6521H15.6521L9.31511 6.62764ZM7.42381 8.77877L6.80477 7.91216L1.8784 1.01713H3.99932L7.9749 6.58173L8.59407 7.4482L13.7619 14.6813H11.641L7.42381 8.77877Z" fill="#000D0D"/>
<path d="M4.45801 0.391602L8.38184 5.97949L8.66699 6.38672L8.99609 6.0127L13.9375 0.391602H14.2764L9.02148 6.36914L8.81836 6.60059L8.99512 6.85254L14.8994 15.2607H11.1943L7.04395 9.35059L6.75781 8.94336L6.42969 9.31641L1.2041 15.2607H0.865234L6.4043 8.95996L6.6084 8.72949L6.43066 8.47754L0.75293 0.391602H4.45801ZM1.55957 1.24414L6.48633 8.13965L7.10547 9.00586L11.3223 14.9092L11.4395 15.0723H14.5225L14.0801 14.4541L8.91211 7.2207L8.29297 6.35449L4.31738 0.790039L4.2002 0.625977H1.11816L1.55957 1.24414Z" stroke="#000D0D" stroke-opacity="0.1" stroke-width="0.782607"/>
</svg>
