<svg width="212" height="45" viewBox="0 0 212 45" fill="none" xmlns="http://www.w3.org/2000/svg">
<path d="M23.2015 25.3276L23.1894 25.3446L23.1869 25.3373L23.2015 25.3276Z" fill="#000D0D"/>
<path d="M23.1894 25.3446L23.2015 25.3592L23.1869 25.3495L23.1894 25.3446Z" fill="#000D0D"/>
<path d="M34.1017 20.9539L33.2771 22.4134L30.2243 22.8148L26.3979 23.3353L27.9717 26.2009L28.125 26.4782L29.5237 29.0761L28.7429 30.4578L27.3393 27.838L27.1885 27.5606L24.9992 23.5591L24.9822 23.5275L24.5492 22.7394C24.4754 22.646 24.4321 22.5322 24.4251 22.4134C24.4284 22.3786 24.4409 22.3454 24.4615 22.3171C24.482 22.2889 24.5098 22.2667 24.5419 22.2528C24.6303 22.221 24.7229 22.2022 24.8167 22.1969L25.1476 22.1531L25.7168 22.0753L25.8676 22.0558L26.1352 22.0193L26.3468 21.9901L30.7327 21.4063L31.0708 21.3601L34.1017 20.9539Z" fill="#000D0D"/>
<path d="M44.1554 30.3362C44.1536 30.3634 44.1462 30.3899 44.1335 30.414C44.1131 30.4522 44.0793 30.4817 44.0386 30.4967C43.9503 30.5291 43.8577 30.5479 43.7638 30.5527L43.4354 30.5964L42.8637 30.6743L42.7129 30.6937L42.4453 30.7302L42.2337 30.7594L37.8308 31.3505L37.4927 31.3968L34.8412 31.7446L35.6634 30.2851L38.3392 29.9324L38.6773 29.8861L42.1778 29.4142L40.6039 26.5487L40.4507 26.2714L39.2125 23.9726L39.9909 22.5885L41.2364 24.914L41.3896 25.1889L43.5789 29.1904L43.5959 29.2221C43.7419 29.4848 43.8854 29.7475 44.0289 30.0102C44.1035 30.1033 44.1477 30.2171 44.1554 30.3362Z" fill="#000D0D"/>
<path d="M23.8826 22.2091L23.8316 22.2164L23.7124 22.0023L23.7099 21.9804L23.7294 21.9682L23.7416 21.9658L23.8826 22.2091Z" fill="#000D0D"/>
<path d="M29.7065 35.4941L40.305 17.0526L39.0014 16.3034L28.4028 34.7449L29.7065 35.4941Z" fill="#000D0D"/>
<path d="M69.0232 25.1646C69.0232 35.138 60.0618 43.2116 49.0083 43.2116H6.18351V43.197H0.0535161L0 0.435422V0H29.7378V0.420828H6.18837V37.4878H31.5597L34.6685 32.1095L41.6645 31.1681L42.0002 31.1243L42.4259 31.0659L38.7236 37.4805H49.0205C56.6635 37.4805 62.8373 31.9514 62.8373 25.1427C62.8373 19.4798 58.5487 14.7071 52.7058 13.2646L43.8076 28.6796L40.3169 22.3283L49.0205 7.26842L49.1032 7.12004C51.3316 7.12535 53.5463 7.46985 55.671 8.1417C59.4412 9.31141 62.7815 11.5693 65.2723 14.6317C67.6884 17.6115 69.012 21.3284 69.0232 25.1646Z" fill="#000D0D"/>
<path d="M28.5531 30.8129L25.0746 36.8383L12.1505 14.4541L8.04197 7.09571H15.2617L23.7416 21.9658L23.8826 22.2091L23.8316 22.2164L28.5531 30.8129Z" fill="#000D0D"/>
<path d="M76.6419 0.432991V43.2627H60.4631V42.7859H70.456V6.14459H42.9075L37.9962 14.4541L34.4958 20.5184L26.9622 21.5328L26.6265 21.579L28.3585 18.5408L39.0641 0.432991H46.2814L46.2668 0.46218L46.2912 0.432991H76.6419Z" fill="#000D0D"/>
<path d="M88.0851 22.8658L83.2511 10.0629H85.6331L88.4354 17.4364C88.7156 18.2071 88.9608 18.9602 89.241 19.9935C89.5563 18.8726 89.819 18.0845 90.0642 17.4364L92.8314 10.0629H95.1608L90.397 22.8658H88.0851Z" fill="#000D0D"/>
<path d="M104.71 22.8658H96.7581V10.0629H104.71V12.1296H98.9999V15.4223H104.114V17.4014H98.9999V20.7992H104.71V22.8658Z" fill="#000D0D"/>
<path d="M109.382 10.0629V20.7992H114.741V22.8658H107.14V10.0629H109.382Z" fill="#000D0D"/>
<path d="M118.736 22.8658H116.564V10.0629H118.736L122.869 20.2562L127.003 10.0629H129.21V22.8658H127.038V18.9251C127.038 16.3505 127.038 15.5974 127.16 14.6867L123.903 22.8658H121.836L118.596 14.7042C118.718 15.4748 118.736 16.6833 118.736 18.2771V22.8658Z" fill="#000D0D"/>
<path d="M143.725 16.4556C143.725 20.3438 141.168 23.076 137.49 23.076C133.83 23.076 131.308 20.3613 131.308 16.4556C131.308 12.5675 133.847 9.83523 137.508 9.83523C141.168 9.83523 143.725 12.5499 143.725 16.4556ZM141.361 16.4556C141.361 13.7234 139.855 11.9895 137.508 11.9895C135.161 11.9895 133.654 13.7234 133.654 16.4556C133.654 19.1878 135.161 20.9218 137.508 20.9218C139.855 20.9218 141.361 19.1528 141.361 16.4556Z" fill="#000D0D"/>
<path d="M147.919 17.8217L143.593 10.0629H146.098L148.62 14.7217C148.812 15.072 148.935 15.3522 149.075 15.6675C149.233 15.3522 149.303 15.1421 149.531 14.7217L152.035 10.0629H154.47L150.161 17.8217V22.8658H147.919V17.8217Z" fill="#000D0D"/>
<path d="M89.1009 43.883H84.4947V31.08H88.9783C92.7614 31.08 95.371 33.6897 95.371 37.5078C95.371 41.2733 92.8139 43.883 89.1009 43.883ZM88.7681 33.1467H86.7365V41.8163H88.8907C91.4478 41.8163 93.0066 40.1699 93.0066 37.5078C93.0066 34.7931 91.4128 33.1467 88.7681 33.1467Z" fill="#000D0D"/>
<path d="M105.411 43.883H97.4593V31.08H105.411V33.1467H99.7011V36.4394H104.815V38.4185H99.7011V41.8163H105.411V43.883Z" fill="#000D0D"/>
<path d="M111.432 43.883L106.598 31.08H108.98L111.782 38.4535C112.062 39.2242 112.307 39.9773 112.588 41.0106C112.903 39.8897 113.166 39.1016 113.411 38.4535L116.178 31.08H118.507L113.744 43.883H111.432Z" fill="#000D0D"/>
<path d="M128.056 43.883H120.105V31.08H128.056V33.1467H122.347V36.4394H127.461V38.4185H122.347V41.8163H128.056V43.883Z" fill="#000D0D"/>
<path d="M132.729 31.08V41.8163H138.088V43.883H130.487V31.08H132.729Z" fill="#000D0D"/>
<path d="M150.977 37.4727C150.977 41.3609 148.42 44.0931 144.742 44.0931C141.082 44.0931 138.56 41.3784 138.56 37.4727C138.56 33.5846 141.099 30.8523 144.76 30.8523C148.42 30.8523 150.977 33.5671 150.977 37.4727ZM148.613 37.4727C148.613 34.7405 147.107 33.0066 144.76 33.0066C142.413 33.0066 140.906 34.7405 140.906 37.4727C140.906 40.205 142.413 41.9389 144.76 41.9389C147.107 41.9389 148.613 40.1699 148.613 37.4727Z" fill="#000D0D"/>
<path d="M158.125 39.4694H155.306V43.883H153.064V31.08H158.125C160.7 31.08 162.364 32.7614 162.364 35.2659C162.364 37.7355 160.682 39.4694 158.125 39.4694ZM157.687 33.0767H155.306V37.4727H157.652C159.194 37.4727 160.017 36.6496 160.017 35.2484C160.017 33.8473 159.176 33.0767 157.687 33.0767Z" fill="#000D0D"/>
<path d="M166.421 43.883H164.25V31.08H166.421L170.555 41.2733L174.688 31.08H176.895V43.883H174.723V39.9423C174.723 37.3677 174.723 36.6145 174.846 35.7038L171.588 43.883H169.521L166.281 35.7213C166.404 36.4919 166.421 37.7004 166.421 39.2942V43.883Z" fill="#000D0D"/>
<path d="M187.68 43.883H179.728V31.08H187.68V33.1467H181.97V36.4394H187.084V38.4185H181.97V41.8163H187.68V43.883Z" fill="#000D0D"/>
<path d="M192.317 43.883H190.11V31.08H192.335L198.342 40.1524V31.08H200.549V43.883H198.342L192.317 34.8106V43.883Z" fill="#000D0D"/>
<path d="M202.262 33.1467V31.08H212V33.1467H208.252V43.883H206.01V33.1467H202.262Z" fill="#000D0D"/>
</svg>
