<svg width="463" height="575" viewBox="0 0 463 575" fill="none" xmlns="http://www.w3.org/2000/svg">
<rect x="82.3974" width="385.144" height="471.318" rx="21.1038" transform="rotate(9.12311 82.3974 0)" fill="#FF906E"/>
<path d="M118.032 54.5073L113.559 53.789L112.434 60.7902L108.878 60.2191L112.139 39.9101L120.169 41.1995C124.253 41.8554 126.464 44.9463 125.826 48.9192C125.197 52.8365 122.088 55.1587 118.032 54.5073ZM118.965 44.2552L115.187 43.6484L114.067 50.6218L117.79 51.2196C120.235 51.6123 121.75 50.5162 122.107 48.2936C122.464 46.071 121.327 44.6344 118.965 44.2552ZM136.947 50.5912L136.443 53.7306L135.193 53.5299C132.748 53.1373 131.01 54.1976 130.582 56.8648L129.511 63.5325L126.122 62.9882L128.321 49.2915L131.516 49.8046L131.39 51.8361C132.192 50.5685 133.645 49.8614 135.478 50.1558C135.951 50.2317 136.414 50.3631 136.947 50.5912ZM136.868 57.6462C137.555 53.3677 141.112 50.918 145.363 51.6006C149.613 52.2833 152.224 55.7234 151.537 60.0019C150.85 64.2804 147.293 66.7301 143.043 66.0475C138.792 65.3649 136.181 61.9247 136.868 57.6462ZM140.258 58.1905C139.856 60.691 141.195 62.6445 143.529 63.0192C145.863 63.394 147.746 61.958 148.148 59.4576C148.549 56.9572 147.21 55.0037 144.876 54.6289C142.543 54.2542 140.659 55.6901 140.258 58.1905ZM157.458 51.1206C156.319 50.9377 155.549 49.8736 155.732 48.7345C155.915 47.5954 156.975 46.8536 158.114 47.0366C159.225 47.215 160.027 48.2558 159.844 49.3948C159.661 50.5339 158.569 51.299 157.458 51.1206ZM148.804 73.2425L149.842 70.3312C150.292 70.5459 150.565 70.6183 150.982 70.6853C152.149 70.8727 152.645 70.2683 152.868 68.8792L155.321 53.5989L158.711 54.1432L156.195 69.8125C155.726 72.7296 153.756 74.3511 150.783 73.8738C150.144 73.7711 149.653 73.6353 148.804 73.2425ZM166.091 69.7772C162.007 69.1214 159.623 65.6891 160.305 61.4384C160.997 57.1321 164.28 54.61 168.309 55.257C172.42 55.9173 174.59 59.0871 173.903 63.3656L173.738 64.3935L163.399 62.7616C163.26 65.2189 164.342 66.6465 166.592 67.0079C168.454 67.3068 169.792 66.7808 170.391 65.5375L173.53 66.0416C172.465 68.9484 169.675 70.3528 166.091 69.7772ZM167.89 58.0397C165.89 57.7184 164.493 58.6056 163.83 60.608L170.72 61.7145C171.023 59.8253 169.918 58.3654 167.89 58.0397ZM178.891 71.4623L175.529 70.9224L178.849 50.2523L182.21 50.7922L180.171 63.4887L186.429 58.5944L190.68 59.277L184.582 63.8836L188.365 72.9837L184.475 72.3591L181.819 66.0048L179.484 67.7672L178.891 71.4623ZM195.09 74.0637L191.701 73.5194L193.45 62.6287L190.811 62.2049L191.266 59.3711L193.905 59.7949L194.592 55.5164L197.981 56.0607L197.294 60.3392L199.962 60.7675L199.506 63.6013L196.839 63.173L195.09 74.0637ZM203.254 75.3747L199.865 74.8304L202.069 61.1059L205.18 61.6056L205.199 63.2616C206.077 62.2341 207.609 61.5681 209.581 61.8849C211.665 62.2195 212.945 63.4794 213.413 65.179C214.361 63.707 216.138 62.9378 218.222 63.2724C221.555 63.8078 223.068 66.1026 222.559 69.2698L221.118 78.2435L217.757 77.7036L219.055 69.619C219.372 67.6464 218.481 66.4489 216.87 66.1901C215.23 65.9269 213.811 66.7819 213.449 69.0323L212.2 76.8113L208.811 76.267L210.113 68.1546C210.421 66.2376 209.558 65.0446 207.947 64.7858C206.336 64.527 204.86 65.3731 204.503 67.5956L203.254 75.3747ZM228.472 79.7948C225.554 79.3264 224.049 77.3461 224.463 74.7623C224.869 72.2341 226.957 70.945 230.248 71.217L234.409 71.5717L234.458 71.2661C234.757 69.4046 233.766 68.476 232.044 68.1994C230.043 67.8782 228.798 68.5332 228.566 69.9779L225.677 69.5139C226.154 66.5412 228.911 64.989 232.634 65.5869C236.329 66.1803 238.286 68.5464 237.675 72.3526L236.336 80.6873L233.364 80.21L233.439 78.1417C232.628 79.4649 230.611 80.1384 228.472 79.7948ZM229.993 77.4173C232.077 77.7519 233.611 76.7159 233.95 74.6044L234.066 73.8821L231.169 73.6448C229.026 73.5002 228.109 74.0654 227.931 75.1767C227.73 76.4269 228.465 77.1719 229.993 77.4173ZM243.056 81.7664L239.666 81.2221L241.87 67.4976L245.01 68.0017L245.002 69.8244C246.086 68.5736 247.883 68.0356 249.744 68.3345C253.189 68.8877 254.624 71.3125 254.052 74.8687L252.696 83.3145L249.307 82.7702L250.534 75.13C250.904 72.8241 249.943 71.5299 248.193 71.2488C246.109 70.9142 244.599 72.1537 244.242 74.3762L243.056 81.7664ZM260.052 84.8663C257.135 84.3979 255.629 82.4176 256.044 79.8338C256.45 77.3056 258.538 76.0165 261.829 76.2885L265.99 76.6431L266.039 76.3375C266.338 74.4761 265.347 73.5475 263.624 73.2709C261.624 72.9497 260.379 73.6047 260.147 75.0494L257.258 74.5854C257.735 71.6127 260.492 70.0605 264.215 70.6584C267.91 71.2517 269.867 73.6179 269.256 77.4241L267.917 85.7588L264.945 85.2815L265.02 83.2132C264.209 84.5364 262.192 85.2099 260.052 84.8663ZM261.574 82.4888C263.658 82.8234 265.192 81.7874 265.531 79.6759L265.647 78.9536L262.75 78.7163C260.607 78.5717 259.69 79.1369 259.512 80.2481C259.311 81.4984 260.046 82.2434 261.574 82.4888ZM271.62 79.0008C272.263 75.0001 275.356 72.419 279.273 73.0481C281.329 73.3782 282.802 74.4982 283.372 76.1001L283.869 74.2421L287.009 74.7463L284.916 87.7762C284.18 92.3603 280.97 94.7802 276.525 94.0664C272.58 93.4328 270.246 90.7497 270.419 87.0155L273.808 87.5598C273.745 89.3736 274.937 90.6479 277.02 90.9825C279.354 91.3573 281.091 90.1257 281.457 87.8476L281.822 85.5694C280.756 86.7091 278.932 87.2426 276.959 86.9259C273.07 86.3013 270.982 82.9737 271.62 79.0008ZM275.051 79.4662C274.68 81.7721 275.876 83.7311 278.099 84.088C280.433 84.4628 282.141 83.0556 282.524 80.6663C282.899 78.3326 281.741 76.4937 279.379 76.1145C277.129 75.7531 275.412 77.2158 275.051 79.4662ZM294.395 90.3812C290.31 89.7254 287.926 86.2931 288.609 82.0424C289.3 77.7362 292.584 75.2141 296.612 75.861C300.724 76.5213 302.894 79.6911 302.207 83.9696L302.042 84.9976L291.702 83.3657C291.564 85.8229 292.646 87.2505 294.896 87.6119C296.758 87.9108 298.096 87.3848 298.695 86.1415L301.834 86.6456C300.769 89.5525 297.978 90.9568 294.395 90.3812ZM296.194 78.6437C294.194 78.3225 292.797 79.2097 292.134 81.212L299.024 82.3185C299.327 80.4293 298.222 78.9694 296.194 78.6437ZM314.603 79.1205L314.099 82.2599L312.848 82.0592C310.404 81.6666 308.666 82.7269 308.238 85.3941L307.167 92.0618L303.777 91.5175L305.977 77.8208L309.172 78.3339L309.045 80.3654C309.847 79.0978 311.3 78.3907 313.134 78.6851C313.606 78.761 314.07 78.8924 314.603 79.1205ZM323.784 94.7303L320.422 94.1905L331.597 75.1808L334.986 75.7251L323.784 94.7303ZM350.006 99.2832C344.088 98.3329 340.914 93.6054 341.936 87.2433C342.949 80.9366 347.595 77.3795 353.541 78.3343C358.347 79.1061 361.48 82.4877 361.475 86.961L357.724 86.3587C357.409 83.8857 355.604 82.1709 352.909 81.7381C349.158 81.1358 346.359 83.4793 345.663 87.8133C344.972 92.1196 346.915 95.2815 350.638 95.8794C353.388 96.3211 355.732 95.2154 356.76 93.0721L360.455 93.6655C358.99 97.8191 354.812 100.055 350.006 99.2832ZM375.169 102.982L362.555 100.957L365.817 80.6476L378.43 82.6732L377.904 85.9515L368.846 84.497L368.008 89.7201L376.12 91.0229L375.616 94.1623L367.504 92.8595L366.638 98.2493L375.695 99.7038L375.169 102.982ZM399.188 96.4087C398.197 102.576 393.445 106.259 387.611 105.322C381.804 104.39 378.495 99.441 379.49 93.2455C380.481 87.0778 385.205 83.3907 391.012 84.3231C396.818 85.2556 400.183 90.2132 399.188 96.4087ZM395.437 95.8064C396.133 91.4723 394.186 88.3382 390.463 87.7404C386.74 87.1425 383.909 89.5093 383.213 93.8433C382.517 98.1774 384.465 101.312 388.187 101.909C391.91 102.507 394.75 100.085 395.437 95.8064Z" fill="#BF5635"/>
<path d="M341.629 246.097L281.16 236.386L288.139 192.924L395.095 210.1L350.729 486.371L304.243 478.906L341.629 246.097Z" fill="#BF5635"/>
<path fill-rule="evenodd" clip-rule="evenodd" d="M260.359 104.511C260.421 104.383 260.559 104.31 260.699 104.333C260.84 104.355 260.948 104.468 260.967 104.608C260.967 104.608 261.224 106.562 261.498 108.656C261.937 111.994 264.028 114.885 267.06 116.346C268.964 117.263 270.738 118.118 270.738 118.118C270.866 118.18 270.939 118.318 270.916 118.459C270.894 118.599 270.781 118.708 270.641 118.726C270.641 118.726 268.687 118.983 266.593 119.258C263.255 119.696 260.364 121.787 258.903 124.82C257.986 126.723 257.131 128.497 257.131 128.497C257.069 128.625 256.931 128.698 256.79 128.675C256.65 128.653 256.541 128.54 256.523 128.4C256.523 128.4 256.266 126.447 255.991 124.352C255.553 121.015 253.462 118.123 250.43 116.662C248.526 115.745 246.752 114.89 246.752 114.89C246.624 114.828 246.551 114.69 246.574 114.55C246.596 114.409 246.709 114.301 246.849 114.282C246.849 114.282 248.802 114.025 250.897 113.751C254.234 113.312 257.126 111.221 258.587 108.189C259.504 106.285 260.359 104.511 260.359 104.511Z" fill="#BF5535"/>
<rect x="98.2529" y="89.8237" width="325.35" height="1.75865" transform="rotate(9.12311 98.2529 89.8237)" fill="#BF5535"/>
<path d="M54.5056 434.506L42.7162 436.918L43.0483 434.85L49.8406 433.445C50.5488 433.309 51.2368 433.201 52.173 433.102C51.2438 432.672 50.5962 432.334 50.0677 432.031L44.0519 428.6L44.3766 426.578L54.828 432.499L54.5056 434.506Z" fill="#BF5535"/>
<path d="M56.8235 420.073L55.7148 426.976L44.5993 425.191L45.7079 418.288L47.5022 418.576L46.7062 423.533L49.5649 423.992L50.2779 419.552L51.9962 419.828L51.2832 424.268L54.2331 424.742L55.0292 419.785L56.8235 420.073Z" fill="#BF5535"/>
<path d="M46.3594 414.231L55.6806 415.728L56.4278 411.075L58.2221 411.363L57.1623 417.963L46.0468 416.178L46.3594 414.231Z" fill="#BF5535"/>
<path d="M58.7791 407.895L58.4763 409.781L47.3608 407.996L47.6636 406.11L57.0897 403.943L48.8161 398.933L49.1238 397.017L60.2393 398.802L59.9365 400.687L56.5152 400.138C54.2799 399.779 53.6261 399.674 52.8525 399.441L59.4994 403.409L59.2113 405.204L51.6736 406.879C52.3597 406.88 53.4114 407.033 54.7951 407.255L58.7791 407.895Z" fill="#BF5535"/>
<path d="M56.6977 385.306C60.0735 385.848 62.0891 388.449 61.5763 391.642C61.0659 394.82 58.3574 396.631 54.9665 396.087C51.5907 395.545 49.5727 392.959 50.0831 389.781C50.5934 386.603 53.3068 384.761 56.6977 385.306ZM56.3681 387.358C53.996 386.978 52.2806 388.044 51.9534 390.081C51.6262 392.119 52.9215 393.668 55.2937 394.049C57.6658 394.43 59.3812 393.364 59.7084 391.326C60.0356 389.289 58.7098 387.735 56.3681 387.358Z" fill="#BF5535"/>
<path d="M58.4686 381.855L51.1292 384.529L51.4784 382.354L55.8748 380.814C56.2058 380.696 56.4662 380.629 56.7594 380.551C56.5077 380.37 56.335 380.28 56.0018 380.024L52.3062 377.2L52.6456 375.086L58.7811 379.908L63.1604 380.612L62.8479 382.558L58.4686 381.855Z" fill="#BF5535"/>
<path d="M72.8943 436.554L72.2521 440.554L61.1366 438.769L61.7617 434.876C62.2892 431.591 64.9187 429.69 68.2336 430.222C71.5028 430.747 73.412 433.331 72.8943 436.554ZM63.5267 435.347L63.2435 437.11L70.7704 438.319L71.0707 436.449C71.4272 434.229 70.2152 432.646 67.9039 432.275C65.547 431.896 63.8955 433.05 63.5267 435.347Z" fill="#BF5535"/>
<path d="M75.1683 422.394L74.0597 429.298L62.9442 427.513L64.0528 420.609L65.8471 420.897L65.051 425.854L67.9097 426.314L68.6228 421.873L70.341 422.149L69.628 426.589L72.5779 427.063L73.374 422.106L75.1683 422.394Z" fill="#BF5535"/>
<path d="M76.0077 417.167L64.2183 419.579L64.5504 417.511L71.3428 416.106C72.0509 415.97 72.7389 415.862 73.6751 415.763C72.7459 415.333 72.0983 414.995 71.5699 414.692L65.554 411.261L65.8788 409.239L76.3301 415.16L76.0077 417.167Z" fill="#BF5535"/>
<path d="M78.3256 402.733L77.217 409.637L66.1014 407.852L67.2101 400.948L69.0044 401.237L68.2083 406.194L71.067 406.653L71.78 402.213L73.4983 402.489L72.7853 406.929L75.7352 407.402L76.5313 402.445L78.3256 402.733Z" fill="#BF5535"/>
<path d="M67.8615 396.892L77.1827 398.389L77.9299 393.736L79.7242 394.024L78.6644 400.623L67.5489 398.838L67.8615 396.892Z" fill="#BF5535"/>
<path d="M75.9559 381.94C79.3316 382.482 81.3472 385.083 80.8344 388.276C80.3241 391.454 77.6155 393.265 74.2246 392.721C70.8489 392.179 68.8309 389.593 69.3412 386.415C69.8516 383.237 72.565 381.395 75.9559 381.94ZM75.6263 383.993C73.2541 383.612 71.5388 384.678 71.2115 386.715C70.8843 388.753 72.1797 390.302 74.5518 390.683C76.9239 391.064 78.6393 389.998 78.9665 387.961C79.2938 385.923 77.968 384.369 75.6263 383.993Z" fill="#BF5535"/>
<path d="M78.686 376.012L78.2929 378.46L82.1247 379.076L81.8122 381.022L70.6967 379.237L71.4024 374.842C71.7613 372.607 73.4531 371.397 75.6275 371.746C77.7715 372.091 79.0425 373.792 78.686 376.012ZM73.0748 375.501L72.7427 377.569L76.5594 378.182L76.8866 376.144C77.1015 374.806 76.5016 373.977 75.2851 373.781C74.0686 373.586 73.2824 374.208 73.0748 375.501Z" fill="#BF5535"/>
<path d="M83.6745 369.425L83.3717 371.31L72.2562 369.525L72.559 367.64L81.9851 365.472L73.7116 360.463L74.0193 358.547L85.1348 360.332L84.832 362.217L81.4107 361.668C79.1754 361.309 78.5215 361.204 77.7479 360.97L84.3949 364.939L84.1067 366.733L76.569 368.409C77.2552 368.41 78.3068 368.563 79.6906 368.785L83.6745 369.425Z" fill="#BF5535"/>
<path d="M86.6385 350.968L85.5298 357.872L74.4143 356.087L75.5229 349.183L77.3172 349.471L76.5212 354.428L79.3799 354.887L80.0929 350.447L81.8112 350.723L81.0982 355.163L84.0481 355.637L84.8442 350.68L86.6385 350.968Z" fill="#BF5535"/>
<path d="M87.285 346.942L86.9773 348.858L75.8618 347.073L76.1719 345.142L84.8862 341.191L77.0095 339.926L77.3172 338.01L88.4327 339.795L88.125 341.711L79.4083 345.677L87.285 346.942Z" fill="#BF5535"/>
<path d="M79.3503 336.811L77.556 336.523L78.9137 328.068L80.708 328.357L80.1854 331.611L89.5066 333.107L89.1941 335.054L79.8729 333.557L79.3503 336.811Z" fill="#BF5535"/>
</svg>
