<svg width="450" height="566" viewBox="0 0 450 566" fill="none" xmlns="http://www.w3.org/2000/svg">
<rect y="49.791" width="385.144" height="471.318" rx="21.1038" transform="rotate(-7.42793 0 49.791)" fill="#FFED2A"/>
<path d="M55.2047 98.3204L42.5371 99.9719L39.878 79.5753L52.5456 77.9238L52.9748 81.2163L43.8787 82.4022L44.5626 87.6478L52.71 86.5856L53.1211 89.7385L44.9736 90.8007L45.6794 96.2138L54.7755 95.0279L55.2047 98.3204ZM61.9787 97.4372L58.5746 97.881L56.7776 84.0973L59.9305 83.6862L60.4423 85.4356C61.1254 83.9277 62.6941 82.9003 64.5635 82.6566C68.0234 82.2055 70.0892 84.1212 70.5549 87.6927L71.6607 96.1749L68.2567 96.6187L67.2563 88.9456C66.9544 86.6297 65.6649 85.6628 63.907 85.892C61.8144 86.1648 60.72 87.783 61.011 90.0152L61.9787 97.4372ZM79.6929 95.1278L76.2888 95.5716L74.8628 84.6339L72.2121 84.9795L71.8411 82.1334L74.4918 81.7879L73.9316 77.4909L77.3356 77.0471L77.8958 81.3441L80.5745 80.9948L80.9455 83.8409L78.2669 84.1901L79.6929 95.1278ZM87.529 94.1061L81.2677 80.9045L84.8112 80.4425L87.3961 86.1213C87.8449 87.1695 88.2803 88.3329 88.6988 89.5836C88.7753 88.2116 88.9136 87.3139 89.1818 85.8885L90.308 79.7258L93.7679 79.2748L96.3806 84.95C96.6208 85.4862 97.448 87.4782 97.7355 88.3771C97.8241 87.3156 98.0559 85.6112 98.1942 84.7135L99.2646 78.5581L102.864 78.0889L99.8897 92.4946L96.7089 92.9093L94.0331 87.1856C93.2386 85.4447 92.7607 84.1733 92.5581 83.4903C92.5023 84.1503 92.3785 85.1596 91.9756 87.5106L90.8494 93.6732L87.529 94.1061ZM106.267 74.8359C105.095 74.9887 104.054 74.188 103.905 73.044C103.756 71.9 104.561 70.8871 105.732 70.7343C106.849 70.5888 107.886 71.3616 108.035 72.5056C108.184 73.6496 107.383 74.6904 106.267 74.8359ZM106.722 91.6038L104.925 77.8201L108.329 77.3763L110.126 91.16L106.722 91.6038ZM111.932 83.8873C111.375 79.6182 113.801 76.2374 117.874 75.7063C121.641 75.2152 124.481 76.9732 125.277 80.2463L121.873 80.6901C121.278 79.1785 120.029 78.5184 118.41 78.7294C116.234 79.0132 114.998 80.8486 115.336 83.4435C115.674 86.0384 117.225 87.4821 119.401 87.1984C121.103 86.9765 122.194 85.983 122.36 84.429L125.792 83.9815C125.792 87.2448 123.401 89.7983 119.801 90.2676C115.616 90.8133 112.503 88.2679 111.932 83.8873ZM132.416 88.2541L129.04 88.6942L126.333 67.935L129.71 67.4948L131.372 80.2461L135.976 73.7719L140.245 73.2154L135.713 79.3681L141.931 87.0136L138.024 87.5229L133.668 82.1885L131.932 84.5431L132.416 88.2541ZM147.43 86.2967L144.054 86.7368L141.347 65.9776L144.723 65.5374L147.43 86.2967ZM157.214 85.3899C153.113 85.9247 149.85 83.3138 149.293 79.0448C148.729 74.7199 151.158 71.367 155.204 70.8395C159.333 70.3011 162.316 72.7215 162.877 77.0184L163.011 78.0508L152.635 79.432C153.203 81.8267 154.646 82.8871 156.906 82.5924C158.776 82.3487 159.909 81.4632 160.129 80.1008L163.282 79.6898C163.089 82.7796 160.814 84.9207 157.214 85.3899ZM155.596 73.6261C153.587 73.888 152.501 75.1363 152.435 77.2447L159.355 76.3425C159.108 74.4452 157.632 73.3605 155.596 73.6261ZM173.378 68.839L173.789 71.992L172.533 72.1557C170.078 72.4758 168.714 73.9873 169.063 76.6659L169.936 83.3624L166.532 83.8062L164.739 70.0504L167.948 69.6321L168.405 71.6156C168.813 70.172 170.004 69.0802 171.845 68.8402C172.32 68.7783 172.801 68.7723 173.378 68.839Z" fill="#9F901F"/>
<path d="M407.688 437.63L215.297 463.099L210.546 426.661L291.267 338.161C324.687 301.379 334.837 281.526 331.373 254.957C327.266 223.453 307.86 207.84 278.633 211.65C248.268 215.609 232.061 239.339 236.333 275.068L188.128 281.352C180.59 220.572 214.159 176.05 272.992 168.38C332.204 160.66 373.426 189.641 380.75 245.817C385.798 284.533 368.352 316.531 330.922 358.082L286.411 407.506L401.799 392.462L407.688 437.63Z" fill="#9F901F"/>
<path fill-rule="evenodd" clip-rule="evenodd" d="M200.359 99.2759C200.382 99.136 200.494 99.0268 200.635 99.0084C200.776 98.9901 200.912 99.0669 200.97 99.1964C200.97 99.1964 201.772 100.995 202.632 102.925C204.003 105.999 206.831 108.175 210.154 108.712C212.24 109.049 214.185 109.363 214.185 109.363C214.325 109.386 214.434 109.498 214.452 109.638C214.47 109.779 214.394 109.916 214.264 109.973C214.264 109.973 212.465 110.776 210.536 111.636C207.461 113.007 205.285 115.835 204.749 119.158C204.412 121.244 204.097 123.188 204.097 123.188C204.075 123.328 203.963 123.437 203.822 123.456C203.681 123.474 203.545 123.397 203.487 123.268C203.487 123.268 202.685 121.469 201.825 119.539C200.454 116.465 197.626 114.289 194.303 113.752C192.217 113.416 190.272 113.101 190.272 113.101C190.132 113.079 190.023 112.967 190.005 112.826C189.986 112.685 190.063 112.549 190.193 112.491C190.193 112.491 191.992 111.688 193.921 110.828C196.996 109.457 199.172 106.629 199.708 103.306C200.045 101.221 200.359 99.2759 200.359 99.2759Z" fill="#9F901F"/>
<rect x="40.7861" y="131.376" width="325.35" height="1.75865" transform="rotate(-7.42793 40.7861 131.376)" fill="#9F901F"/>
<path d="M97.042 474.24L86.428 479.91L86.1572 477.833L92.268 474.552C92.9081 474.22 93.5369 473.92 94.406 473.558C93.3928 473.411 92.6757 473.271 92.0828 473.131L85.3389 471.557L85.0741 469.526L96.7791 472.224L97.042 474.24Z" fill="#9F901F"/>
<path d="M95.1521 459.744L96.056 466.677L84.8926 468.133L83.9887 461.2L85.7907 460.965L86.4398 465.943L89.3108 465.569L88.7294 461.11L90.4551 460.885L91.0365 465.344L93.9991 464.958L93.3501 459.979L95.1521 459.744Z" fill="#9F901F"/>
<path d="M83.4575 457.126L92.8189 455.905L92.2097 451.232L94.0117 450.997L94.8758 457.625L83.7124 459.08L83.4575 457.126Z" fill="#9F901F"/>
<path d="M93.5576 447.514L93.8045 449.408L82.641 450.863L82.3942 448.969L90.8123 444.207L81.4544 441.761L81.2036 439.837L92.367 438.382L92.6139 440.275L89.1778 440.723C86.9329 441.016 86.2762 441.102 85.4682 441.098L92.9703 443.009L93.2052 444.811L86.457 448.564C87.115 448.369 88.1668 448.217 89.5565 448.036L93.5576 447.514Z" fill="#9F901F"/>
<path d="M85.1275 426.453C88.5178 426.011 91.1908 427.93 91.6089 431.138C92.0251 434.329 89.9447 436.837 86.5391 437.281C83.1489 437.723 80.4778 435.819 80.0617 432.627C79.6456 429.436 81.722 426.897 85.1275 426.453ZM85.3963 428.515C83.014 428.826 81.6733 430.336 81.9401 432.383C82.2069 434.429 83.89 435.545 86.2723 435.235C88.6547 434.924 89.9954 433.414 89.7286 431.367C89.4618 429.321 87.7481 428.208 85.3963 428.515Z" fill="#9F901F"/>
<path d="M85.8419 422.641L79.5684 427.295L79.2837 425.111L83.0592 422.383C83.3428 422.175 83.5732 422.036 83.8321 421.878C83.5393 421.776 83.3481 421.739 82.9557 421.589L78.6088 419.934L78.332 417.812L85.5871 420.686L89.9853 420.113L90.2401 422.068L85.8419 422.641Z" fill="#9F901F"/>
<path d="M115.252 470.965L115.776 474.981L104.612 476.437L104.103 472.527C103.673 469.229 105.651 466.656 108.981 466.222C112.264 465.794 114.83 467.727 115.252 470.965ZM105.929 472.476L106.16 474.247L113.719 473.261L113.474 471.383C113.183 469.153 111.571 467.981 109.249 468.284C106.882 468.593 105.628 470.17 105.929 472.476Z" fill="#9F901F"/>
<path d="M113.398 456.744L114.302 463.677L103.139 465.132L102.235 458.199L104.037 457.964L104.686 462.943L107.557 462.568L106.975 458.109L108.701 457.884L109.283 462.343L112.245 461.957L111.596 456.979L113.398 456.744Z" fill="#9F901F"/>
<path d="M112.714 451.494L102.1 457.164L101.829 455.087L107.94 451.805C108.58 451.473 109.209 451.174 110.078 450.812C109.065 450.665 108.347 450.525 107.755 450.385L101.011 448.81L100.746 446.779L112.451 449.478L112.714 451.494Z" fill="#9F901F"/>
<path d="M110.824 436.998L111.728 443.931L100.564 445.387L99.6604 438.453L101.462 438.219L102.112 443.197L104.983 442.823L104.401 438.363L106.127 438.138L106.708 442.598L109.671 442.211L109.022 437.233L110.824 436.998Z" fill="#9F901F"/>
<path d="M99.1293 434.379L108.491 433.159L107.881 428.486L109.683 428.251L110.548 434.879L99.3841 436.334L99.1293 434.379Z" fill="#9F901F"/>
<path d="M102.629 417.741C106.019 417.299 108.692 419.218 109.11 422.425C109.526 425.617 107.446 428.124 104.041 428.568C100.65 429.01 97.9792 427.107 97.5631 423.915C97.147 420.723 99.2234 418.185 102.629 417.741ZM102.898 419.803C100.515 420.113 99.1747 421.624 99.4415 423.67C99.7083 425.716 101.391 426.833 103.774 426.522C106.156 426.211 107.497 424.701 107.23 422.655C106.963 420.608 105.249 419.496 102.898 419.803Z" fill="#9F901F"/>
<path d="M103.557 411.281L103.878 413.74L107.726 413.238L107.981 415.193L96.8176 416.648L96.2422 412.235C95.9495 409.99 97.2265 408.348 99.4103 408.063C101.564 407.783 103.267 409.052 103.557 411.281ZM98.033 412.39L98.3037 414.467L102.137 413.967L101.87 411.92C101.695 410.577 100.884 409.952 99.6618 410.112C98.4401 410.271 97.8637 411.092 98.033 412.39Z" fill="#9F901F"/>
<path d="M106.463 403.546L106.709 405.439L95.546 406.895L95.2991 405.001L103.717 400.238L94.3594 397.793L94.1085 395.869L105.272 394.413L105.519 396.307L102.083 396.755C99.8379 397.048 99.1812 397.133 98.3732 397.13L105.875 399.041L106.11 400.843L99.362 404.596C100.02 404.401 101.072 404.249 102.461 404.067L106.463 403.546Z" fill="#9F901F"/>
<path d="M104.046 385.009L104.95 391.943L93.7864 393.398L92.8825 386.465L94.6845 386.23L95.3336 391.208L98.2046 390.834L97.6233 386.375L99.349 386.15L99.9303 390.609L102.893 390.223L102.244 385.244L104.046 385.009Z" fill="#9F901F"/>
<path d="M103.519 380.966L103.77 382.89L92.6062 384.346L92.3534 382.406L99.5811 376.137L91.6704 377.168L91.4196 375.244L102.583 373.788L102.834 375.713L95.6082 381.997L103.519 380.966Z" fill="#9F901F"/>
<path d="M93.0269 373.515L91.2248 373.75L90.1178 365.259L91.9199 365.024L92.346 368.292L101.707 367.072L101.962 369.027L92.6008 370.247L93.0269 373.515Z" fill="#9F901F"/>
</svg>
