<svg width="507" height="602" viewBox="0 0 507 602" fill="none" xmlns="http://www.w3.org/2000/svg">
<rect y="99.6826" width="385.144" height="471.318" rx="21.1038" transform="rotate(-15 0 99.6826)" fill="#2AFFDF"/>
<path d="M55.9278 141.905L48.7795 143.821L43.4558 123.952L50.4138 122.088C56.2846 120.515 61.4195 123.48 63.0071 129.405C64.5729 135.248 61.6898 140.361 55.9278 141.905ZM50.947 125.383L47.7942 126.227L51.3992 139.681L54.7422 138.786C58.7105 137.722 60.4449 134.519 59.3379 130.388C58.2091 126.175 55.0511 124.283 50.947 125.383ZM74.5109 137.305C70.5155 138.375 66.9368 136.217 65.8225 132.059C64.6937 127.846 66.6596 124.202 70.6006 123.146C74.6232 122.068 77.8991 124.074 79.0206 128.26L79.2901 129.266L69.1865 132.002C70.0648 134.301 71.6355 135.162 73.837 134.572C75.658 134.084 76.6646 133.057 76.7028 131.678L79.7741 130.855C79.9899 133.943 78.0171 136.365 74.5109 137.305ZM71.3561 125.857C69.3991 126.381 68.4873 127.762 68.7 129.86L75.4406 128.054C74.9453 126.206 73.3402 125.325 71.3561 125.857ZM81.4136 130.707L84.5664 129.862C84.9067 131.023 85.9731 131.524 87.4952 131.116C89.0444 130.701 89.7195 129.85 89.4573 128.872C89.2752 128.192 88.7908 127.798 87.5221 127.847L84.9502 127.924C82.3855 128.029 80.9109 127.2 80.3356 125.053C79.6292 122.417 81.4355 120.243 84.534 119.413C87.5509 118.604 90.0555 119.798 90.7818 122.4L87.6289 123.244C87.2959 122.11 86.3382 121.58 85.0608 121.922C83.7562 122.272 83.1554 123.074 83.4248 124.08C83.6287 124.841 84.3578 125.17 85.5722 125.135L88.1441 125.058C90.5384 124.97 91.9566 125.697 92.5101 127.763C93.2384 130.481 91.3797 132.785 88.0638 133.673C84.7207 134.569 82.12 133.343 81.4136 130.707ZM93.4593 114.574C92.3177 114.88 91.1805 114.223 90.8819 113.109C90.5833 111.995 91.2472 110.885 92.3887 110.579C93.4759 110.287 94.6059 110.917 94.9045 112.031C95.203 113.146 94.5465 114.283 93.4593 114.574ZM96.12 131.136L92.5223 117.709L95.8382 116.821L99.4359 130.247L96.12 131.136ZM100.222 122.521C99.1731 118.607 100.941 114.987 104.774 113.96C106.785 113.421 108.587 113.842 109.761 115.071L109.456 113.172L112.528 112.349L115.943 125.096C117.145 129.581 115.204 133.101 110.856 134.266C106.996 135.3 103.77 133.805 102.401 130.327L105.717 129.438C106.4 131.12 108.009 131.796 110.047 131.249C112.33 130.638 113.412 128.804 112.815 126.575L112.218 124.346C111.71 125.822 110.263 127.055 108.334 127.572C104.528 128.592 101.263 126.408 100.222 122.521ZM103.543 121.544C104.148 123.8 106.04 125.099 108.214 124.516C110.497 123.904 111.481 121.922 110.854 119.585C110.243 117.302 108.434 116.097 106.124 116.716C103.922 117.305 102.953 119.342 103.543 121.544ZM122.873 123.967L119.557 124.856L115.959 111.429L119.031 110.606L119.769 112.273C120.247 110.688 121.667 109.463 123.488 108.975C126.858 108.072 129.158 109.699 130.09 113.178L132.304 121.44L128.988 122.329L126.986 114.854C126.381 112.599 124.975 111.81 123.263 112.269C121.225 112.815 120.353 114.563 120.936 116.738L122.873 123.967ZM141.664 119.311C137.668 120.382 134.089 118.224 132.975 114.065C131.846 109.852 133.812 106.209 137.753 105.153C141.776 104.075 145.052 106.081 146.173 110.267L146.443 111.272L136.339 114.009C137.217 116.308 138.788 117.169 140.99 116.579C142.811 116.091 143.817 115.064 143.855 113.684L146.927 112.861C147.143 115.95 145.17 118.372 141.664 119.311ZM138.509 107.863C136.552 108.388 135.64 109.768 135.853 111.867L142.593 110.061C142.098 108.212 140.493 107.332 138.509 107.863ZM155.505 100.775L156.328 103.846L155.105 104.174C152.713 104.815 151.56 106.493 152.26 109.102L154.007 115.625L150.691 116.514L147.101 103.114L150.227 102.276L150.941 104.182C151.155 102.698 152.192 101.458 153.986 100.978C154.448 100.854 154.925 100.785 155.505 100.775ZM159.236 109.854L162.389 109.009C162.73 110.171 163.796 110.672 165.318 110.264C166.867 109.849 167.542 108.998 167.28 108.019C167.098 107.34 166.614 106.945 165.345 106.994L162.773 107.071C160.208 107.176 158.734 106.348 158.158 104.2C157.452 101.564 159.258 99.3904 162.357 98.5601C165.374 97.7518 167.878 98.945 168.605 101.547L165.452 102.392C165.119 101.258 164.161 100.728 162.884 101.07C161.579 101.419 160.978 102.221 161.248 103.227C161.452 103.988 162.181 104.317 163.395 104.283L165.967 104.206C168.361 104.117 169.779 104.844 170.333 106.91C171.061 109.628 169.202 111.932 165.887 112.821C162.543 113.716 159.943 112.491 159.236 109.854Z" fill="#1F8273"/>
<path d="M310.774 326.07L277.867 334.888L269.644 304.199L322.015 221.61L209.616 251.727L198.421 209.947L369.978 163.978L380.083 201.692L330.518 279.963C374.108 277.001 414.399 298.7 427.179 346.396C442.039 401.857 408.192 448.573 353.471 463.235C300.599 477.402 250.84 455.862 235.187 397.444L281.774 384.961C290.096 416.019 314.077 428.615 342.917 420.887C372.495 412.962 386.94 388.485 378.915 358.536C371.584 331.175 348.487 315.965 310.774 326.07Z" fill="#1F8273"/>
<path fill-rule="evenodd" clip-rule="evenodd" d="M205.134 122.335C205.138 122.193 205.235 122.07 205.372 122.033C205.509 121.996 205.654 122.054 205.729 122.175C205.729 122.175 206.761 123.853 207.868 125.652C209.632 128.519 212.722 130.303 216.087 130.398C218.199 130.457 220.168 130.512 220.168 130.512C220.31 130.516 220.433 130.612 220.469 130.75C220.506 130.887 220.448 131.032 220.327 131.106C220.327 131.106 218.65 132.139 216.85 133.246C213.983 135.01 212.199 138.1 212.105 141.465C212.046 143.577 211.991 145.546 211.991 145.546C211.987 145.688 211.89 145.81 211.753 145.847C211.616 145.884 211.47 145.826 211.396 145.705C211.396 145.705 210.364 144.027 209.257 142.228C207.493 139.361 204.402 137.577 201.038 137.483C198.926 137.424 196.957 137.368 196.957 137.368C196.815 137.365 196.692 137.268 196.655 137.131C196.619 136.993 196.677 136.848 196.798 136.774C196.798 136.774 198.475 135.742 200.275 134.634C203.141 132.871 204.926 129.78 205.02 126.416C205.079 124.304 205.134 122.335 205.134 122.335Z" fill="#1F8273"/>
<rect x="51.1816" y="175.183" width="325.35" height="1.75865" transform="rotate(-15 51.1816 175.183)" fill="#1F8273"/>
<path d="M152.126 507.642L142.352 514.662L141.809 512.639L147.435 508.581C148.025 508.167 148.609 507.788 149.423 507.314C148.399 507.302 147.67 507.258 147.064 507.197L140.171 506.525L139.641 504.546L151.6 505.679L152.126 507.642Z" fill="#1F8273"/>
<path d="M148.342 493.522L150.152 500.276L139.278 503.19L137.468 496.436L139.223 495.966L140.523 500.815L143.319 500.066L142.156 495.722L143.837 495.272L145 499.615L147.886 498.842L146.587 493.993L148.342 493.522Z" fill="#1F8273"/>
<path d="M136.405 492.468L145.524 490.024L144.304 485.472L146.059 485.002L147.789 491.458L136.915 494.372L136.405 492.468Z" fill="#1F8273"/>
<path d="M145.15 481.609L145.644 483.453L134.77 486.367L134.276 484.523L141.993 478.692L132.394 477.501L131.892 475.627L142.766 472.713L143.261 474.558L139.914 475.454C137.727 476.04 137.087 476.212 136.286 476.315L143.974 477.22L144.445 478.976L138.25 483.585C138.876 483.306 139.899 483.016 141.253 482.653L145.15 481.609Z" fill="#1F8273"/>
<path d="M134.018 461.843C137.321 460.958 140.223 462.508 141.06 465.632C141.893 468.741 140.162 471.501 136.844 472.39C133.542 473.275 130.643 471.74 129.81 468.63C128.977 465.521 130.701 462.732 134.018 461.843ZM134.556 463.851C132.236 464.473 131.106 466.147 131.64 468.14C132.174 470.134 133.99 471.018 136.31 470.396C138.631 469.775 139.761 468.101 139.227 466.107C138.693 464.114 136.847 463.237 134.556 463.851Z" fill="#1F8273"/>
<path d="M134.224 457.97L128.619 463.41L128.049 461.282L131.432 458.08C131.685 457.837 131.895 457.669 132.131 457.478C131.828 457.416 131.633 457.404 131.224 457.306L126.697 456.24L126.143 454.172L133.714 456.065L137.998 454.917L138.508 456.822L134.224 457.97Z" fill="#1F8273"/>
<path d="M169.746 501.996L170.794 505.909L159.92 508.823L158.899 505.014C158.038 501.801 159.661 498.991 162.904 498.122C166.102 497.265 168.901 498.843 169.746 501.996ZM160.702 504.723L161.165 506.448L168.528 504.475L168.038 502.645C167.456 500.473 165.703 499.524 163.442 500.13C161.136 500.748 160.101 502.476 160.702 504.723Z" fill="#1F8273"/>
<path d="M166.034 488.143L167.843 494.897L156.969 497.811L155.16 491.057L156.915 490.587L158.214 495.436L161.011 494.687L159.847 490.343L161.528 489.893L162.692 494.237L165.578 493.463L164.278 488.614L166.034 488.143Z" fill="#1F8273"/>
<path d="M164.664 483.03L154.889 490.049L154.347 488.026L159.972 483.968C160.563 483.554 161.147 483.175 161.961 482.701C160.937 482.689 160.208 482.645 159.602 482.584L152.709 481.912L152.179 479.933L164.137 481.066L164.664 483.03Z" fill="#1F8273"/>
<path d="M160.88 468.909L162.69 475.663L151.815 478.577L150.006 471.823L151.761 471.353L153.061 476.202L155.857 475.453L154.693 471.109L156.374 470.659L157.538 475.003L160.424 474.229L159.125 469.38L160.88 468.909Z" fill="#1F8273"/>
<path d="M148.942 467.855L158.061 465.411L156.842 460.859L158.597 460.389L160.327 466.845L149.453 469.759L148.942 467.855Z" fill="#1F8273"/>
<path d="M150.219 450.9C153.521 450.015 156.424 451.565 157.261 454.689C158.094 457.798 156.362 460.558 153.045 461.447C149.743 462.332 146.844 460.797 146.011 457.688C145.178 454.579 146.902 451.789 150.219 450.9ZM150.757 452.908C148.436 453.53 147.307 455.204 147.841 457.197C148.375 459.191 150.19 460.076 152.511 459.454C154.832 458.832 155.961 457.158 155.427 455.165C154.893 453.171 153.048 452.294 150.757 452.908Z" fill="#1F8273"/>
<path d="M150.288 444.374L150.93 446.769L154.678 445.765L155.189 447.669L144.314 450.583L143.162 446.284C142.576 444.097 143.626 442.301 145.753 441.731C147.851 441.169 149.706 442.202 150.288 444.374ZM144.958 446.201L145.5 448.224L149.234 447.224L148.7 445.23C148.349 443.921 147.462 443.409 146.272 443.728C145.082 444.047 144.619 444.937 144.958 446.201Z" fill="#1F8273"/>
<path d="M152.149 436.323L152.643 438.168L141.769 441.082L141.274 439.237L148.991 433.407L139.393 432.216L138.891 430.341L149.765 427.428L150.259 429.272L146.912 430.169C144.725 430.755 144.086 430.926 143.284 431.03L150.973 431.935L151.443 433.69L145.248 438.3C145.875 438.02 146.897 437.731 148.251 437.368L152.149 436.323Z" fill="#1F8273"/>
<path d="M147.311 418.267L149.12 425.021L138.246 427.935L136.436 421.181L138.192 420.711L139.491 425.56L142.288 424.811L141.124 420.467L142.805 420.017L143.969 424.36L146.855 423.587L145.555 418.738L147.311 418.267Z" fill="#1F8273"/>
<path d="M146.255 414.328L146.757 416.203L135.883 419.117L135.377 417.227L141.715 410.06L134.01 412.125L133.507 410.251L144.382 407.337L144.884 409.211L138.549 416.393L146.255 414.328Z" fill="#1F8273"/>
<path d="M134.873 408.325L133.118 408.795L130.901 400.524L132.657 400.054L133.51 403.238L142.629 400.794L143.139 402.698L134.02 405.142L134.873 408.325Z" fill="#1F8273"/>
</svg>
