<svg width="507" height="602" viewBox="0 0 507 602" fill="none" xmlns="http://www.w3.org/2000/svg">
<rect x="134.501" width="385.144" height="471.318" rx="21.1038" transform="rotate(15 134.501 0)" fill="#FF6EDB"/>
<path d="M162.988 65.1909C157.199 63.6396 154.526 58.612 156.193 52.3879C157.847 46.2182 162.833 43.1555 168.649 44.714C173.351 45.9739 176.122 49.6585 175.658 54.1078L171.989 53.1246C171.928 50.6323 170.308 48.7416 167.672 48.0352C164.003 47.0521 160.979 49.0966 159.843 53.3366C158.714 57.5495 160.323 60.8937 163.965 61.8696C166.656 62.5906 169.1 61.7308 170.342 59.704L173.957 60.6726C172.075 64.6544 167.69 66.4508 162.988 65.1909ZM175.829 61.0576C176.95 56.8719 180.739 54.7993 184.898 55.9135C189.056 57.0278 191.301 60.7172 190.18 64.9029C189.058 69.0885 185.269 71.1612 181.111 70.0469C176.952 68.9327 174.707 65.2432 175.829 61.0576ZM179.145 61.9461C178.489 64.3922 179.622 66.4726 181.905 67.0843C184.188 67.6961 186.208 66.4605 186.864 64.0144C187.519 61.5682 186.387 59.4879 184.104 58.8761C181.821 58.2644 179.8 59.4999 179.145 61.9461ZM189.334 78.5718L194.6 58.921L197.671 59.7439L197.342 61.8406C198.573 60.5099 200.58 60.0863 202.618 60.6325C206.396 61.6448 208.161 65.06 207.032 69.2728C205.911 73.4585 202.812 75.8908 198.817 74.8203C196.805 74.2814 195.277 73.0271 194.799 71.4423L192.65 79.4603L189.334 78.5718ZM196.144 66.5301C195.496 68.9491 196.546 71.0076 198.829 71.6193C201.167 72.2456 203.005 70.9319 203.645 68.5401C204.286 66.1483 203.359 64.0646 201.022 63.4383C198.738 62.8265 196.792 64.1111 196.144 66.5301ZM204.489 82.6326L205.232 79.8602L207.216 80.3919C208.521 80.7414 209.416 80.661 210.409 79.2375L211.059 78.3338L209.401 62.887L212.907 63.8265L213.737 74.5361L220.001 65.7273L223.426 66.6449L212.45 81.299C210.774 83.53 209.084 84.1842 206.882 83.5943C205.958 83.3466 205.172 83.0194 204.489 82.6326ZM224.674 81.3701L223.923 66.7782L227.375 67.7031L227.598 73.9385C227.613 75.0787 227.571 76.3202 227.481 77.636C228.075 76.3969 228.546 75.6199 229.337 74.4046L232.729 69.1378L236.1 70.0409L236.35 76.2836C236.367 76.8709 236.372 79.0278 236.294 79.9684C236.781 79.0211 237.646 77.534 238.116 76.757L241.454 71.4756L244.96 72.415L236.715 84.5964L233.616 83.7662L233.327 77.4545C233.256 75.5422 233.3 74.1846 233.373 73.476C233.07 74.0647 232.57 74.9505 231.301 76.9699L227.909 82.2368L224.674 81.3701ZM255.408 75.1563L254.585 78.2276L253.362 77.8999C250.97 77.259 249.133 78.1359 248.434 80.7452L246.686 87.2683L243.37 86.3798L246.961 72.9802L250.086 73.8177L249.752 75.8257C250.68 74.6468 252.198 74.0922 253.992 74.5728C254.454 74.6966 254.901 74.8748 255.408 75.1563ZM260.017 73.5656C258.876 73.2597 258.219 72.1224 258.518 71.0081C258.816 69.8937 259.946 69.2643 261.088 69.5702C262.175 69.8615 262.839 70.9716 262.54 72.0859C262.242 73.2003 261.104 73.8569 260.017 73.5656ZM254.041 89.2388L257.638 75.8121L260.954 76.7006L257.356 90.1273L254.041 89.2388ZM265.349 92.2688L262.033 91.3803L264.887 80.7259L262.305 80.034L263.048 77.2617L265.63 77.9536L266.752 73.7679L270.068 74.6564L268.946 78.8421L271.555 79.5412L270.813 82.3135L268.203 81.6144L265.349 92.2688ZM275.996 77.847C274.854 77.5411 274.198 76.4039 274.496 75.2895C274.795 74.1752 275.925 73.5458 277.066 73.8516C278.154 74.1429 278.817 75.253 278.519 76.3674C278.22 77.4817 277.083 78.1383 275.996 77.847ZM270.019 93.5203L273.617 80.0936L276.933 80.982L273.335 94.4088L270.019 93.5203ZM280.077 96.2152L276.761 95.3267L280.359 81.9L283.43 82.723L283.236 84.5353C284.442 83.4021 286.284 83.0508 288.105 83.5388C291.476 84.4418 292.654 87.0008 291.722 90.4797L289.508 98.7423L286.192 97.8538L288.195 90.3795C288.799 88.1235 287.976 86.7378 286.264 86.279C284.226 85.7328 282.597 86.8111 282.014 88.9855L280.077 96.2152ZM293.884 92.399C294.933 88.4852 298.274 86.2344 302.106 87.2612C304.118 87.8002 305.468 89.0651 305.871 90.7168L306.556 88.9196L309.627 89.7426L306.212 102.49C305.01 106.974 301.569 109.053 297.221 107.888C293.361 106.854 291.315 103.946 291.868 100.249L295.184 101.137C294.935 102.935 295.99 104.325 298.029 104.871C300.312 105.482 302.166 104.435 302.763 102.207L303.36 99.9778C302.182 101.002 300.313 101.346 298.384 100.829C294.578 99.8096 292.843 96.2857 293.884 92.399ZM297.249 93.2133C296.644 95.4692 297.633 97.5403 299.808 98.1229C302.091 98.7347 303.934 97.5098 304.56 95.1723C305.172 92.8893 304.208 90.9414 301.898 90.3224C299.696 89.7325 297.839 91.0117 297.249 93.2133ZM310.985 98.2922L311.772 95.3569L320.524 97.7019L319.737 100.637L310.985 98.2922ZM324.512 92.7694C325.444 89.2905 328.973 87.6434 333.159 88.765C337.181 89.8428 339.139 92.7561 338.286 96.373L334.807 95.4408C335.185 93.7066 334.231 92.3733 332.274 91.8489C330.127 91.2736 328.464 91.935 328.02 93.5929C327.641 95.0063 328.191 95.9984 329.747 96.8231L332.69 98.3401C335.891 99.9843 337.083 102.168 336.289 105.131C335.299 108.827 331.777 110.447 327.401 109.274C323.161 108.138 320.993 105.14 321.866 101.557L325.345 102.489C324.92 104.182 326.01 105.552 328.239 106.149C330.549 106.768 332.286 106.155 332.73 104.497C333.087 103.166 332.619 102.195 331.083 101.405L328.119 99.8536C324.946 98.2167 323.696 95.8136 324.512 92.7694ZM335.743 117.802L341.008 98.1511L344.08 98.974L343.751 101.071C344.981 99.74 346.988 99.3164 349.027 99.8626C352.805 100.875 354.57 104.29 353.441 108.503C352.319 112.689 349.221 115.121 345.225 114.05C343.214 113.511 341.686 112.257 341.207 110.672L339.059 118.69L335.743 117.802ZM342.553 105.76C341.904 108.179 342.955 110.238 345.238 110.849C347.576 111.476 349.413 110.162 350.054 107.77C350.695 105.378 349.768 103.295 347.43 102.668C345.147 102.057 343.201 103.341 342.553 105.76ZM360.151 118.05C356.155 116.979 354.135 113.321 355.249 109.162C356.378 104.949 359.903 102.777 363.844 103.833C367.866 104.911 369.7 108.286 368.578 112.472L368.309 113.477L358.191 110.795C357.802 113.225 358.732 114.756 360.933 115.346C362.754 115.834 364.14 115.448 364.862 114.272L367.934 115.095C366.576 117.878 363.657 118.989 360.151 118.05ZM363.142 106.558C361.186 106.034 359.706 106.773 358.841 108.697L365.581 110.503C366.076 108.655 365.127 107.09 363.142 106.558ZM379.24 122.786L368.396 119.88L369.124 117.162L377.937 111.017L371.251 109.226L371.994 106.454L382.838 109.359L382.103 112.104L373.188 118.193L379.983 120.014L379.24 122.786ZM387.926 107.839C386.784 107.533 386.128 106.395 386.426 105.281C386.725 104.167 387.855 103.537 388.996 103.843C390.083 104.134 390.747 105.245 390.449 106.359C390.15 107.473 389.013 108.13 387.926 107.839ZM381.949 123.512L385.547 110.085L388.863 110.974L385.265 124.4L381.949 123.512ZM392.592 126.742C389.738 125.977 388.443 123.853 389.12 121.326C389.783 118.852 391.992 117.784 395.237 118.391L399.34 119.17L399.42 118.871C399.908 117.05 399.017 116.025 397.332 115.573C395.375 115.049 394.07 115.573 393.691 116.987L390.864 116.229C391.643 113.321 394.545 112.059 398.187 113.035C401.802 114.004 403.506 116.558 402.509 120.281L400.324 128.435L397.416 127.656L397.703 125.606C396.76 126.84 394.684 127.303 392.592 126.742ZM394.349 124.533C396.387 125.079 398.02 124.206 398.573 122.14L398.762 121.433L395.905 120.901C393.788 120.537 392.818 121.006 392.526 122.093C392.199 123.316 392.854 124.132 394.349 124.533ZM406.924 130.204L403.636 129.323L409.054 109.101L412.343 109.982L406.924 130.204ZM416.379 115.463C415.238 115.157 414.581 114.02 414.88 112.905C415.178 111.791 416.308 111.161 417.45 111.467C418.537 111.759 419.201 112.869 418.902 113.983C418.604 115.097 417.467 115.754 416.379 115.463ZM410.403 131.136L414 117.709L417.316 118.598L413.719 132.024L410.403 131.136ZM417.204 128.589L420.357 129.434C420.071 130.61 420.744 131.576 422.266 131.984C423.815 132.399 424.825 132 425.088 131.022C425.27 130.342 425.047 129.758 423.924 129.166L421.658 127.947C419.385 126.755 418.522 125.301 419.097 123.153C419.804 120.517 422.455 119.538 425.554 120.368C428.57 121.176 430.143 123.462 429.471 126.079L426.318 125.234C426.597 124.085 426.032 123.147 424.755 122.805C423.45 122.455 422.529 122.849 422.26 123.855C422.056 124.616 422.523 125.265 423.591 125.843L425.857 127.062C427.975 128.183 428.84 129.522 428.286 131.587C427.558 134.305 424.796 135.371 421.48 134.483C418.137 133.587 416.498 131.225 417.204 128.589ZM434.292 137.537L430.976 136.649L433.831 125.994L431.249 125.302L431.992 122.53L434.574 123.222L435.695 119.036L439.011 119.925L437.89 124.11L440.499 124.809L439.756 127.582L437.147 126.883L434.292 137.537Z" fill="#C3349F"/>
<path d="M367.169 271.346L308.011 255.495L319.404 212.975L424.04 241.012L351.619 511.289L306.142 499.104L367.169 271.346Z" fill="#C3349F"/>
<path fill-rule="evenodd" clip-rule="evenodd" d="M300.826 122.183C300.9 122.062 301.046 122.004 301.183 122.041C301.32 122.078 301.417 122.201 301.421 122.343C301.421 122.343 301.476 124.312 301.535 126.424C301.629 129.788 303.413 132.879 306.28 134.642C308.08 135.749 309.757 136.782 309.757 136.782C309.878 136.856 309.936 137.001 309.899 137.139C309.863 137.276 309.74 137.373 309.598 137.376C309.598 137.376 307.629 137.432 305.517 137.491C302.152 137.585 299.062 139.369 297.298 142.236C296.191 144.035 295.159 145.713 295.159 145.713C295.084 145.834 294.939 145.892 294.802 145.855C294.665 145.818 294.568 145.695 294.564 145.554C294.564 145.554 294.509 143.585 294.45 141.473C294.356 138.108 292.571 135.018 289.705 133.254C287.905 132.147 286.227 131.114 286.227 131.114C286.107 131.04 286.049 130.895 286.085 130.758C286.122 130.62 286.245 130.524 286.387 130.52C286.387 130.52 288.356 130.465 290.468 130.405C293.832 130.311 296.923 128.527 298.687 125.66C299.794 123.861 300.826 122.183 300.826 122.183Z" fill="#C3339F"/>
<rect x="141.077" y="90.9756" width="325.35" height="1.75865" transform="rotate(15 141.077 90.9756)" fill="#C3339F"/>
<path d="M62.2678 429.367L50.2934 430.559L50.8355 428.536L57.736 427.833C58.4543 427.771 59.1498 427.734 60.0913 427.731C59.2109 427.208 58.6013 426.806 58.1067 426.45L52.4737 422.422L53.0039 420.443L62.794 427.403L62.2678 429.367Z" fill="#C3339F"/>
<path d="M66.0513 415.246L64.2417 422L53.3674 419.086L55.177 412.333L56.9324 412.803L55.6329 417.653L58.4296 418.402L59.5935 414.058L61.2745 414.509L60.1106 418.852L62.9965 419.626L64.296 414.776L66.0513 415.246Z" fill="#C3339F"/>
<path d="M56.2404 408.364L65.3593 410.808L66.579 406.256L68.3344 406.726L66.6045 413.182L55.7302 410.268L56.2404 408.364Z" fill="#C3339F"/>
<path d="M69.2435 403.333L68.7493 405.178L57.875 402.264L58.3692 400.419L67.9677 399.228L60.2506 393.398L60.7529 391.523L71.6272 394.437L71.1329 396.282L67.7858 395.385C65.5991 394.799 64.9594 394.628 64.2137 394.316L70.4194 398.945L69.9491 400.7L62.2795 401.594C62.9619 401.666 63.9923 401.926 65.346 402.289L69.2435 403.333Z" fill="#C3339F"/>
<path d="M69.4861 380.649C72.7886 381.534 74.5273 384.328 73.6902 387.452C72.8571 390.561 69.9774 392.085 66.66 391.196C63.3576 390.311 61.6149 387.533 62.448 384.423C63.2811 381.314 66.1688 379.76 69.4861 380.649ZM68.948 382.657C66.6274 382.036 64.8118 382.92 64.2777 384.914C63.7436 386.907 64.8735 388.581 67.1942 389.203C69.5148 389.825 71.3303 388.94 71.8645 386.947C72.3986 384.953 71.2389 383.271 68.948 382.657Z" fill="#C3339F"/>
<path d="M71.601 377.398L64.0264 379.306L64.5964 377.179L69.1274 376.097C69.4687 376.013 69.7346 375.973 70.0343 375.926C69.8024 375.72 69.6398 375.613 69.3346 375.324L65.9476 372.136L66.5017 370.068L72.1112 375.494L76.3954 376.642L75.8852 378.546L71.601 377.398Z" fill="#C3339F"/>
<path d="M80.3501 433.287L79.3018 437.199L68.4275 434.286L69.4479 430.477C70.3089 427.264 73.1193 425.642 76.3623 426.511C79.5606 427.368 81.1952 430.133 80.3501 433.287ZM71.1555 431.126L70.6931 432.852L78.0567 434.825L78.547 432.995C79.1289 430.823 78.0853 429.125 75.8242 428.519C73.5184 427.901 71.7573 428.88 71.1555 431.126Z" fill="#C3339F"/>
<path d="M84.062 419.434L82.2524 426.188L71.3781 423.274L73.1877 416.52L74.9431 416.991L73.6437 421.84L76.4403 422.59L77.6042 418.246L79.2852 418.696L78.1213 423.04L81.0072 423.813L82.3067 418.964L84.062 419.434Z" fill="#C3339F"/>
<path d="M85.4323 414.32L73.4579 415.512L74 413.489L80.9005 412.787C81.6188 412.724 82.3143 412.687 83.2557 412.685C82.3754 412.162 81.7658 411.759 81.2712 411.403L75.6382 407.375L76.1684 405.396L85.9585 412.356L85.4323 414.32Z" fill="#C3339F"/>
<path d="M89.2158 400.2L87.4062 406.954L76.5319 404.04L78.3415 397.286L80.0969 397.757L78.7974 402.606L81.5941 403.355L82.758 399.012L84.439 399.462L83.2751 403.806L86.161 404.579L87.4605 399.73L89.2158 400.2Z" fill="#C3339F"/>
<path d="M79.4049 393.318L88.5238 395.761L89.7435 391.209L91.4989 391.679L89.769 398.136L78.8946 395.222L79.4049 393.318Z" fill="#C3339F"/>
<path d="M88.9877 379.273C92.2902 380.158 94.0289 382.951 93.1918 386.075C92.3587 389.184 89.479 390.709 86.1616 389.82C82.8592 388.935 81.1165 386.156 81.9496 383.047C82.7826 379.938 85.6704 378.384 88.9877 379.273ZM88.4496 381.281C86.1289 380.659 84.3134 381.544 83.7793 383.537C83.2452 385.531 84.3751 387.205 86.6958 387.827C89.0164 388.448 90.8319 387.564 91.366 385.57C91.9002 383.577 90.7405 381.895 88.4496 381.281Z" fill="#C3339F"/>
<path d="M92.3104 373.656L91.6686 376.051L95.4174 377.055L94.9072 378.96L84.0328 376.046L85.1848 371.747C85.7707 369.56 87.5775 368.529 89.7048 369.099C91.8023 369.661 92.8923 371.484 92.3104 373.656ZM86.781 372.573L86.2389 374.596L89.9728 375.597L90.5069 373.603C90.8577 372.294 90.3458 371.408 89.1558 371.089C87.9657 370.77 87.1198 371.308 86.781 372.573Z" fill="#C3339F"/>
<path d="M97.9472 367.614L97.4529 369.459L86.5786 366.545L87.0729 364.7L96.6714 363.509L88.9543 357.679L89.4565 355.804L100.331 358.718L99.8365 360.563L96.4895 359.666C94.3027 359.08 93.663 358.909 92.9174 358.597L99.123 363.226L98.6527 364.981L90.9831 365.876C91.6655 365.947 92.696 366.207 94.0497 366.57L97.9472 367.614Z" fill="#C3339F"/>
<path d="M102.785 349.558L100.976 356.311L90.1014 353.398L91.911 346.644L93.6664 347.114L92.3669 351.964L95.1636 352.713L96.3275 348.37L98.0085 348.82L96.8446 353.164L99.7305 353.937L101.03 349.087L102.785 349.558Z" fill="#C3339F"/>
<path d="M103.841 345.619L103.338 347.493L92.4642 344.58L92.9704 342.69L102.043 339.653L94.3376 337.588L94.8398 335.714L105.714 338.627L105.212 340.502L96.135 343.554L103.841 345.619Z" fill="#C3339F"/>
<path d="M96.9851 334.729L95.2297 334.259L97.4459 325.987L99.2013 326.458L98.3483 329.641L107.467 332.085L106.957 333.989L97.8381 331.545L96.9851 334.729Z" fill="#C3339F"/>
</svg>
