<svg width="386" height="520" viewBox="0 0 386 520" fill="none" xmlns="http://www.w3.org/2000/svg">
<rect width="385.144" height="471.318" rx="21.1038" fill="#846EFF"/>
<path d="M34.5115 40.4304C34.5115 36.8286 37.4941 34.3243 41.8274 34.3243C45.9919 34.3243 48.6369 36.6317 48.7495 40.3459H45.1478C45.0633 38.5732 43.7971 37.5321 41.7712 37.5321C39.5482 37.5321 38.1132 38.6014 38.1132 40.3178C38.1132 41.781 38.901 42.597 40.6175 42.9909L43.8534 43.6944C47.3707 44.4541 49.0871 46.255 49.0871 49.3221C49.0871 53.1489 46.1045 55.6251 41.5742 55.6251C37.1846 55.6251 34.3145 53.2896 34.2301 49.6035H37.8318C37.8599 51.348 39.2668 52.3892 41.5742 52.3892C43.966 52.3892 45.4854 51.348 45.4854 49.6316C45.4854 48.2528 44.782 47.4368 43.0937 47.071L39.8296 46.3394C36.3405 45.5797 34.5115 43.5819 34.5115 40.4304ZM65.1203 55.2593H52.3455V34.6901H65.1203V38.0105H55.9472V43.3005H64.1636V46.4801H55.9472V51.9389H65.1203V55.2593ZM87.7934 44.9606C87.7934 51.2074 83.6852 55.5969 77.7762 55.5969C71.8953 55.5969 67.8433 51.2355 67.8433 44.9606C67.8433 38.7139 71.9234 34.3243 77.8043 34.3243C83.6852 34.3243 87.7934 38.6858 87.7934 44.9606ZM83.9948 44.9606C83.9948 40.571 81.5749 37.7854 77.8043 37.7854C74.0338 37.7854 71.6139 40.571 71.6139 44.9606C71.6139 49.3502 74.0338 52.1359 77.8043 52.1359C81.5749 52.1359 83.9948 49.2939 83.9948 44.9606ZM90.611 49.2658V46.2269H99.6716V49.2658H90.611ZM102.247 40.4304C102.247 36.8286 105.23 34.3243 109.563 34.3243C113.727 34.3243 116.372 36.6317 116.485 40.3459H112.883C112.799 38.5732 111.533 37.5321 109.507 37.5321C107.284 37.5321 105.849 38.6014 105.849 40.3178C105.849 41.781 106.636 42.597 108.353 42.9909L111.589 43.6944C115.106 44.4541 116.823 46.255 116.823 49.3221C116.823 53.1489 113.84 55.6251 109.31 55.6251C104.92 55.6251 102.05 53.2896 101.965 49.6035H105.567C105.595 51.348 107.002 52.3892 109.31 52.3892C111.701 52.3892 113.221 51.348 113.221 49.6316C113.221 48.2528 112.517 47.4368 110.829 47.071L107.565 46.3394C104.076 45.5797 102.247 43.5819 102.247 40.4304ZM119.574 61.703V41.3589H122.754L122.979 43.4693C123.823 41.8654 125.652 40.9368 127.763 40.9368C131.674 40.9368 134.263 43.7788 134.263 48.1403C134.263 52.4736 131.899 55.6251 127.763 55.6251C125.68 55.6251 123.88 54.8091 123.007 53.4021V61.703H119.574ZM123.035 48.3091C123.035 50.8134 124.583 52.5299 126.947 52.5299C129.367 52.5299 130.802 50.7853 130.802 48.3091C130.802 45.8329 129.367 44.0602 126.947 44.0602C124.583 44.0602 123.035 45.8048 123.035 48.3091ZM143.215 55.6251C139.078 55.6251 136.18 52.6143 136.18 48.3091C136.18 43.9477 139.022 40.9368 143.102 40.9368C147.267 40.9368 149.912 43.7225 149.912 48.0559V49.097L139.444 49.1251C139.697 51.5732 140.992 52.8112 143.271 52.8112C145.156 52.8112 146.394 52.0796 146.788 50.7571H149.968C149.377 53.7961 146.844 55.6251 143.215 55.6251ZM143.13 43.7507C141.104 43.7507 139.866 44.8481 139.528 46.9303H146.507C146.507 45.0169 145.184 43.7507 143.13 43.7507ZM162.88 55.2593H151.653V52.4454L158.575 44.229H151.653V41.3589H162.88V44.2009L155.845 52.3892H162.88V55.2593ZM167.4 38.5732C166.219 38.5732 165.29 37.6447 165.29 36.491C165.29 35.3373 166.219 34.4369 167.4 34.4369C168.526 34.4369 169.454 35.3373 169.454 36.491C169.454 37.6447 168.526 38.5732 167.4 38.5732ZM165.684 55.2593V41.3589H169.117V55.2593H165.684ZM176.8 55.6251C173.845 55.6251 172.045 53.9086 172.045 51.2918C172.045 48.7312 173.902 47.1273 177.194 46.874L181.358 46.5645V46.255C181.358 44.3697 180.233 43.61 178.488 43.61C176.462 43.61 175.337 44.4541 175.337 45.9173H172.41C172.41 42.9065 174.887 40.9368 178.657 40.9368C182.399 40.9368 184.707 42.9628 184.707 46.8178V55.2593H181.696L181.443 53.2052C180.852 54.6402 178.967 55.6251 176.8 55.6251ZM177.925 53.0363C180.036 53.0363 181.386 51.7701 181.386 49.6316V48.9L178.488 49.1251C176.35 49.3221 175.534 50.0255 175.534 51.1511C175.534 52.4173 176.378 53.0363 177.925 53.0363ZM191.54 55.2593H188.136V34.3243H191.54V55.2593ZM196.858 38.5732C195.676 38.5732 194.747 37.6447 194.747 36.491C194.747 35.3373 195.676 34.4369 196.858 34.4369C197.983 34.4369 198.912 35.3373 198.912 36.491C198.912 37.6447 197.983 38.5732 196.858 38.5732ZM195.141 55.2593V41.3589H198.574V55.2593H195.141ZM201.052 51.0385H204.316C204.344 52.2485 205.244 53.0082 206.82 53.0082C208.424 53.0082 209.296 52.361 209.296 51.348C209.296 50.6446 208.93 50.1381 207.692 49.8567L205.188 49.2658C202.684 48.703 201.474 47.5212 201.474 45.2983C201.474 42.5689 203.781 40.9368 206.989 40.9368C210.112 40.9368 212.223 42.7377 212.251 45.439H208.987C208.959 44.2572 208.171 43.4974 206.848 43.4974C205.498 43.4974 204.71 44.1165 204.71 45.1576C204.71 45.9455 205.329 46.452 206.511 46.7334L209.015 47.3243C211.35 47.8589 212.532 48.9281 212.532 51.0667C212.532 53.8805 210.14 55.6251 206.707 55.6251C203.246 55.6251 201.052 53.7679 201.052 51.0385ZM219.873 55.2593H216.44V44.229H213.767V41.3589H216.44V37.0256H219.873V41.3589H222.574V44.229H219.873V55.2593Z" fill="#C8BEFF"/>
<path d="M294.969 201.882H233.724V157.862H342.051V437.673H294.969V201.882Z" fill="#C8BEFF"/>
<path fill-rule="evenodd" clip-rule="evenodd" d="M192.28 74.9723C192.321 74.8364 192.446 74.7427 192.588 74.7427C192.73 74.7427 192.855 74.8364 192.896 74.9723C192.896 74.9723 193.459 76.86 194.062 78.8847C195.024 82.1103 197.547 84.6336 200.773 85.5954C202.798 86.199 204.685 86.7621 204.685 86.7621C204.821 86.8025 204.915 86.9277 204.915 87.0698C204.915 87.2118 204.821 87.3371 204.685 87.3775C204.685 87.3775 202.798 87.9406 200.773 88.5442C197.547 89.506 195.024 92.0293 194.062 95.2549C193.459 97.2796 192.896 99.1673 192.896 99.1673C192.855 99.3031 192.73 99.3969 192.588 99.3969C192.446 99.3969 192.321 99.3031 192.28 99.1673C192.28 99.1673 191.717 97.2796 191.113 95.2549C190.152 92.0293 187.628 89.506 184.403 88.5442C182.378 87.9406 180.49 87.3775 180.49 87.3775C180.355 87.3371 180.261 87.2118 180.261 87.0698C180.261 86.9277 180.355 86.8025 180.49 86.7621C180.49 86.7621 182.378 86.199 184.403 85.5954C187.628 84.6336 190.152 82.1103 191.113 78.8847C191.717 76.86 192.28 74.9723 192.28 74.9723Z" fill="#C8BEFF"/>
<rect x="29.8975" y="86.1738" width="325.35" height="1.75865" fill="#C8BEFF"/>
<path d="M41.3546 433.432L30.0967 437.683L30.0967 435.588L36.5804 433.124C37.258 432.878 37.9203 432.662 38.8289 432.416C37.8433 432.138 37.1502 431.907 36.5804 431.692L30.0967 429.258L30.0967 427.21L41.3546 431.399L41.3546 433.432Z" fill="#C8BEFF"/>
<path d="M41.3546 418.814L41.3546 425.806L30.0967 425.806L30.0967 418.814L31.914 418.814L31.914 423.834L34.8093 423.834L34.8093 419.337L36.5496 419.337L36.5496 423.834L39.5373 423.834L39.5373 418.814L41.3546 418.814Z" fill="#C8BEFF"/>
<path d="M30.0967 414.705L39.5373 414.705L39.5373 409.993L41.3546 409.993L41.3546 416.677L30.0967 416.677L30.0967 414.705Z" fill="#C8BEFF"/>
<path d="M41.3546 406.48L41.3546 408.39L30.0967 408.39L30.0967 406.48L39.0599 402.845L30.0967 399.211L30.0967 397.27L41.3546 397.27L41.3546 399.18L37.8895 399.18C35.6255 399.18 34.9633 399.18 34.1625 399.072L41.3546 401.937L41.3546 403.754L34.1779 406.603C34.8555 406.495 35.9182 406.48 37.3196 406.48L41.3546 406.48Z" fill="#C8BEFF"/>
<path d="M35.7179 384.506C39.1369 384.506 41.5394 386.755 41.5394 389.989C41.5394 393.208 39.1523 395.425 35.718 395.425C32.299 395.425 29.8965 393.192 29.8965 389.974C29.8965 386.755 32.2836 384.506 35.7179 384.506ZM35.718 386.585C33.3154 386.585 31.7908 387.91 31.7908 389.974C31.7908 392.037 33.3154 393.362 35.718 393.362C38.1205 393.362 39.6451 392.037 39.6451 389.974C39.6451 387.91 38.0897 386.585 35.718 386.585Z" fill="#C8BEFF"/>
<path d="M36.9192 380.818L30.0967 384.622L30.0967 382.42L34.1933 380.202C34.5013 380.033 34.7477 379.925 35.0249 379.802C34.7477 379.663 34.5629 379.602 34.1933 379.402L30.0967 377.199L30.0967 375.058L36.9192 378.847L41.3546 378.847L41.3546 380.818L36.9192 380.818Z" fill="#C8BEFF"/>
<path d="M59.8355 432.539L59.8355 436.589L48.5775 436.589L48.5775 432.647C48.5775 429.32 50.8723 427.025 54.2296 427.025C57.5408 427.025 59.8355 429.274 59.8355 432.539ZM50.3948 432.831L50.3948 434.618L58.0182 434.618L58.0182 432.724C58.0182 430.475 56.5705 429.104 54.2296 429.104C51.8425 429.104 50.3948 430.506 50.3948 432.831Z" fill="#C8BEFF"/>
<path d="M59.8355 418.197L59.8355 425.189L48.5775 425.189L48.5775 418.197L50.3948 418.197L50.3948 423.218L53.2902 423.218L53.2902 418.721L55.0304 418.721L55.0304 423.218L58.0182 423.218L58.0182 418.197L59.8355 418.197Z" fill="#C8BEFF"/>
<path d="M59.8355 412.903L48.5775 417.153L48.5775 415.059L55.0612 412.595C55.7389 412.348 56.4011 412.133 57.3098 411.886C56.3241 411.609 55.6311 411.378 55.0612 411.162L48.5775 408.729L48.5775 406.681L59.8355 410.87L59.8355 412.903Z" fill="#C8BEFF"/>
<path d="M59.8355 398.284L59.8355 405.276L48.5775 405.276L48.5775 398.284L50.3948 398.284L50.3948 403.305L53.2902 403.305L53.2902 398.808L55.0304 398.808L55.0304 403.305L58.0182 403.305L58.0182 398.284L59.8355 398.284Z" fill="#C8BEFF"/>
<path d="M48.5775 394.176L58.0182 394.176L58.0182 389.463L59.8355 389.463L59.8355 396.147L48.5775 396.147L48.5775 394.176Z" fill="#C8BEFF"/>
<path d="M54.1988 378.13C57.6178 378.13 60.0203 380.378 60.0203 383.612C60.0203 386.831 57.6332 389.049 54.1988 389.049C50.7798 389.049 48.3773 386.816 48.3773 383.597C48.3773 380.378 50.7644 378.13 54.1988 378.13ZM54.1988 380.209C51.7963 380.209 50.2716 381.533 50.2716 383.597C50.2716 385.66 51.7963 386.985 54.1988 386.985C56.6013 386.985 58.126 385.66 58.126 383.597C58.126 381.533 56.5705 380.209 54.1988 380.209Z" fill="#C8BEFF"/>
<path d="M55.9545 371.844L55.9545 374.323L59.8355 374.323L59.8355 376.295L48.5775 376.295L48.5775 371.844C48.5775 369.58 50.056 368.117 52.2583 368.117C54.4298 368.117 55.9545 369.595 55.9545 371.844ZM50.3332 372.229L50.3332 374.323L54.1988 374.323L54.1988 372.26C54.1988 370.905 53.475 370.181 52.2429 370.181C51.0109 370.181 50.3332 370.92 50.3332 372.229Z" fill="#C8BEFF"/>
<path d="M59.8355 364.549L59.8355 366.459L48.5775 366.459L48.5775 364.549L57.5408 360.915L48.5775 357.28L48.5775 355.339L59.8355 355.339L59.8355 357.249L56.3703 357.249C54.1064 357.249 53.4442 357.249 52.6433 357.141L59.8355 360.006L59.8355 361.823L52.6587 364.672C53.3364 364.564 54.399 364.549 55.8005 364.549L59.8355 364.549Z" fill="#C8BEFF"/>
<path d="M59.8355 345.856L59.8355 352.848L48.5775 352.848L48.5775 345.856L50.3948 345.856L50.3948 350.877L53.2902 350.877L53.2902 346.379L55.0304 346.379L55.0304 350.877L58.0182 350.877L58.0182 345.856L59.8355 345.856Z" fill="#C8BEFF"/>
<path d="M59.8355 341.778L59.8355 343.719L48.5775 343.719L48.5775 341.763L56.5551 336.48L48.5775 336.48L48.5775 334.54L59.8355 334.54L59.8355 336.48L51.8579 341.778L59.8355 341.778Z" fill="#C8BEFF"/>
<path d="M50.3948 333.033L48.5775 333.033L48.5775 324.471L50.3948 324.471L50.3948 327.766L59.8355 327.766L59.8355 329.738L50.3948 329.738L50.3948 333.033Z" fill="#C8BEFF"/>
</svg>
