<svg width="45" height="115" viewBox="0 0 45 115" fill="none" xmlns="http://www.w3.org/2000/svg">
<path d="M25.9822 107.588L16.208 114.608L15.6659 112.585L21.291 108.526C21.8817 108.113 22.4656 107.733 23.2795 107.26C22.2557 107.248 21.5265 107.204 20.9203 107.143L14.0277 106.471L13.4976 104.492L25.4561 105.625L25.9822 107.588Z" fill="#1F8273"/>
<path d="M22.1987 93.4681L24.0084 100.222L13.1341 103.136L11.3244 96.3819L13.0798 95.9116L14.3792 100.761L17.1759 100.012L16.012 95.668L17.693 95.2176L18.8569 99.5613L21.7428 98.788L20.4434 93.9385L22.1987 93.4681Z" fill="#1F8273"/>
<path d="M10.2611 92.4134L19.38 89.97L18.1603 85.4179L19.9157 84.9476L21.6456 91.4038L10.7713 94.3175L10.2611 92.4134Z" fill="#1F8273"/>
<path d="M19.0065 81.5546L19.5008 83.3992L8.62645 86.313L8.13218 84.4684L15.8493 78.6378L6.25079 77.4469L5.74856 75.5725L16.6229 72.6588L17.1171 74.5034L13.77 75.4002C11.5833 75.9862 10.9436 76.1576 10.1422 76.2607L17.8306 77.1662L18.301 78.9216L12.1062 83.5311C12.7328 83.2516 13.7553 82.9617 15.109 82.5989L19.0065 81.5546Z" fill="#1F8273"/>
<path d="M7.87473 61.7886C11.1772 60.9037 14.0798 62.4538 14.9169 65.5778C15.7499 68.6868 14.0181 71.4468 10.7008 72.3357C7.39834 73.2206 4.49972 71.6854 3.66665 68.5763C2.83358 65.4672 4.55739 62.6775 7.87473 61.7886ZM8.41284 63.7969C6.09219 64.4187 4.96227 66.0927 5.49639 68.086C6.03051 70.0794 7.84603 70.9641 10.1667 70.3423C12.4873 69.7205 13.6172 68.0466 13.0831 66.0532C12.549 64.0598 10.7037 63.1831 8.41284 63.7969Z" fill="#1F8273"/>
<path d="M8.08053 57.9154L2.47503 63.3556L1.90503 61.2283L5.28805 58.0259C5.54172 57.7825 5.75183 57.6146 5.98771 57.4239C5.68407 57.3617 5.48961 57.3501 5.08077 57.2523L0.553772 56.1854L-0.000281063 54.1176L7.57032 56.0113L11.8546 54.8633L12.3648 56.7674L8.08053 57.9154Z" fill="#1F8273"/>
<path d="M43.6022 101.942L44.6505 105.855L33.7762 108.768L32.7557 104.96C31.8948 101.747 33.5174 98.9366 36.7603 98.0676C39.9587 97.2106 42.7571 98.7886 43.6022 101.942ZM34.5589 104.668L35.0213 106.394L42.3849 104.421L41.8946 102.591C41.3127 100.419 39.5596 99.47 37.2984 100.076C34.9927 100.694 33.9571 102.422 34.5589 104.668Z" fill="#1F8273"/>
<path d="M39.8903 88.0893L41.6999 94.843L30.8256 97.7568L29.0159 91.0031L30.7713 90.5327L32.0707 95.3823L34.8674 94.6329L33.7035 90.2892L35.3845 89.8387L36.5484 94.1825L39.4343 93.4092L38.1349 88.5597L39.8903 88.0893Z" fill="#1F8273"/>
<path d="M38.52 82.9754L28.7458 89.9949L28.2037 87.9718L33.8287 83.9135C34.4195 83.5001 35.0033 83.1205 35.8173 82.6473C34.7934 82.6346 34.0642 82.5908 33.458 82.53L26.5655 81.8578L26.0353 79.8793L37.9938 81.0118L38.52 82.9754Z" fill="#1F8273"/>
<path d="M34.7365 68.8552L36.5461 75.6089L25.6718 78.5226L23.8622 71.769L25.6175 71.2986L26.917 76.1482L29.7137 75.3988L28.5497 71.055L30.2307 70.6046L31.3946 74.9484L34.2806 74.1751L32.9811 69.3255L34.7365 68.8552Z" fill="#1F8273"/>
<path d="M22.7988 67.8004L31.9178 65.357L30.6981 60.805L32.4534 60.3346L34.1833 66.7908L23.309 69.7046L22.7988 67.8004Z" fill="#1F8273"/>
<path d="M24.0754 50.8459C27.3779 49.961 30.2805 51.5111 31.1175 54.635C31.9506 57.7441 30.2188 60.504 26.9015 61.3929C23.599 62.2778 20.7004 60.7426 19.8673 57.6336C19.0343 54.5245 20.7581 51.7348 24.0754 50.8459ZM24.6135 52.8541C22.2929 53.4759 21.1629 55.1499 21.6971 57.1433C22.2312 59.1366 24.0467 60.0214 26.3674 59.3995C28.688 58.7777 29.8179 57.1038 29.2838 55.1104C28.7497 53.117 26.9044 52.2403 24.6135 52.8541Z" fill="#1F8273"/>
<path d="M24.1444 44.3201L24.7862 46.7151L28.5349 45.7107L29.0451 47.6148L18.1708 50.5286L17.0189 46.2294C16.4329 44.0426 17.4824 42.2468 19.6096 41.6768C21.7071 41.1147 23.5625 42.1482 24.1444 44.3201ZM18.8144 46.1469L19.3565 48.17L23.0903 47.1695L22.5562 45.1762C22.2054 43.8671 21.3189 43.3552 20.1289 43.6741C18.9388 43.993 18.4756 44.8824 18.8144 46.1469Z" fill="#1F8273"/>
<path d="M26.0051 36.2693L26.4994 38.1139L15.6251 41.0277L15.1308 39.1831L22.8479 33.3525L13.2494 32.1616L12.7472 30.2873L23.6215 27.3735L24.1158 29.2181L20.7687 30.115C18.5819 30.7009 17.9423 30.8723 17.1408 30.9755L24.8293 31.8809L25.2996 33.6363L19.1048 38.2458C19.7315 37.9663 20.7539 37.6764 22.1076 37.3136L26.0051 36.2693Z" fill="#1F8273"/>
<path d="M21.167 18.2131L22.9766 24.9667L12.1023 27.8805L10.2927 21.1268L12.048 20.6565L13.3475 25.506L16.1441 24.7567L14.9802 20.4129L16.6612 19.9625L17.8251 24.3063L20.711 23.533L19.4116 18.6834L21.167 18.2131Z" fill="#1F8273"/>
<path d="M20.1116 14.2743L20.6138 16.1487L9.7395 19.0624L9.23328 17.1732L15.5718 10.006L7.86609 12.0707L7.36385 10.1964L18.2382 7.2826L18.7404 9.15698L12.4058 16.339L20.1116 14.2743Z" fill="#1F8273"/>
<path d="M8.72933 8.27096L6.97397 8.74131L4.75775 0.470291L6.51312 -5.72153e-05L7.36612 3.1834L16.4851 0.73998L16.9953 2.64411L7.87633 5.08752L8.72933 8.27096Z" fill="#1F8273"/>
</svg>
