<svg width="22" height="33" viewBox="0 0 22 33" fill="none" xmlns="http://www.w3.org/2000/svg">
<path d="M5.36936 32.1099C8.33325 32.1099 10.7387 29.7124 10.7387 26.7583V21.4067H5.36936C2.40547 21.4067 0 23.8043 0 26.7583C0 29.7124 2.40547 32.1099 5.36936 32.1099Z" fill="#0ACF83"/>
<path d="M0 16.0552C0 13.1011 2.40547 10.7036 5.36936 10.7036H10.7387V21.4068H5.36936C2.40547 21.4068 0 19.0093 0 16.0552Z" fill="#A259FF"/>
<path d="M0 5.35159C0 2.39751 2.40547 0 5.36936 0H10.7387V10.7032H5.36936C2.40547 10.7032 0 8.30567 0 5.35159Z" fill="#F24E1E"/>
<path d="M10.7383 0H16.1076C19.0715 0 21.477 2.39751 21.477 5.35159C21.477 8.30567 19.0715 10.7032 16.1076 10.7032H10.7383V0Z" fill="#FF7262"/>
<path d="M21.477 16.0552C21.477 19.0093 19.0715 21.4068 16.1076 21.4068C13.1438 21.4068 10.7383 19.0093 10.7383 16.0552C10.7383 13.1011 13.1438 10.7036 16.1076 10.7036C19.0715 10.7036 21.477 13.1011 21.477 16.0552Z" fill="#1ABCFE"/>
</svg>
