<svg width="411" height="196" viewBox="0 0 411 196" fill="none" xmlns="http://www.w3.org/2000/svg">
<mask id="mask0_4069_6793" style="mask-type:alpha" maskUnits="userSpaceOnUse" x="0" y="0" width="411" height="196">
<rect width="411" height="196" rx="15" transform="matrix(-1 0 0 1 411 0)" fill="#0081FB"/>
</mask>
<g mask="url(#mask0_4069_6793)">
<rect width="411" height="196" rx="15" transform="matrix(-1 0 0 1 411 0)" fill="#0081FB"/>
<rect width="411" height="196" rx="15" transform="matrix(-1 0 0 1 411 0)" fill="#0081FB"/>
<path d="M79.92 46H76.944V28.456H79.92L85.584 42.424L91.248 28.456H94.272V46H91.296V40.6C91.296 37.072 91.296 36.04 91.464 34.792L87 46H84.168L79.728 34.816C79.896 35.872 79.92 37.528 79.92 39.712V46ZM103.027 46.312C99.4989 46.312 97.0269 43.744 97.0269 40.072C97.0269 36.352 99.4509 33.784 102.931 33.784C106.483 33.784 108.739 36.16 108.739 39.856V40.744L99.8109 40.768C100.027 42.856 101.131 43.912 103.075 43.912C104.683 43.912 105.739 43.288 106.075 42.16H108.787C108.283 44.752 106.123 46.312 103.027 46.312ZM102.955 36.184C101.227 36.184 100.171 37.12 99.8829 38.896H105.835C105.835 37.264 104.707 36.184 102.955 36.184ZM114.997 46H112.069V36.592H109.789V34.144H112.069V30.448H114.997V34.144H117.301V36.592H114.997V46ZM122.579 46.312C120.059 46.312 118.523 44.848 118.523 42.616C118.523 40.432 120.107 39.064 122.915 38.848L126.467 38.584V38.32C126.467 36.712 125.507 36.064 124.019 36.064C122.291 36.064 121.331 36.784 121.331 38.032H118.835C118.835 35.464 120.947 33.784 124.163 33.784C127.355 33.784 129.323 35.512 129.323 38.8V46H126.755L126.539 44.248C126.035 45.472 124.427 46.312 122.579 46.312ZM123.539 44.104C125.339 44.104 126.491 43.024 126.491 41.2V40.576L124.019 40.768C122.195 40.936 121.499 41.536 121.499 42.496C121.499 43.576 122.219 44.104 123.539 44.104Z" fill="white"/>
<path d="M197.104 162.106C197.104 174.581 199.828 184.159 203.388 189.953C208.056 197.542 215.018 200.757 222.115 200.757C231.27 200.757 239.645 198.474 255.784 176.035C268.713 158.05 283.948 132.806 294.199 116.979L311.559 90.1669C323.618 71.5458 337.576 50.8456 353.58 36.8145C366.645 25.3623 380.739 19 394.923 19C418.736 19 441.419 32.8721 458.779 58.8894C477.778 87.3834 487 123.274 487 160.311C487 182.329 482.683 198.508 475.336 211.289C468.239 223.65 454.405 236 431.134 236V200.757C451.06 200.757 456.033 182.352 456.033 161.288C456.033 131.272 449.071 97.9607 433.734 74.1589C422.85 57.2761 408.745 46.9601 393.227 46.9601C376.444 46.9601 362.938 59.6847 347.76 82.3731C339.69 94.4274 331.406 109.117 322.104 125.694L311.864 143.928C291.295 180.591 286.085 188.942 275.8 202.723C257.773 226.854 242.38 236 222.115 236C198.076 236 182.875 225.536 173.46 209.767C165.775 196.917 162 180.057 162 160.845L197.104 162.106Z" fill="#309AFF"/>
<path d="M190 61.3775C206.077 36.4395 229.277 19 255.887 19C271.298 19 286.618 23.5899 302.615 36.7349C320.115 51.1069 338.765 74.7724 362.034 113.776L370.377 127.773C390.518 161.538 401.977 178.91 408.683 187.101C417.308 197.622 423.348 200.757 431.195 200.757C451.099 200.757 456.066 182.352 456.066 161.288L487 160.311C487 182.329 482.687 198.508 475.349 211.289C468.259 223.65 454.44 236 431.195 236C416.744 236 403.941 232.842 389.784 219.401C378.9 209.085 366.177 190.759 356.389 174.286L327.272 125.341C312.663 100.778 299.262 82.464 291.506 74.1703C283.163 65.2517 272.438 54.4812 255.323 54.4812C241.47 54.4812 229.706 64.2632 219.861 79.226L190 61.3775Z" fill="#309AFF"/>
<path d="M255.433 54.3386C241.511 54.3386 229.689 64.0813 219.796 78.9839C205.806 100.042 197.24 131.409 197.24 161.531C197.24 173.956 199.974 183.495 203.548 189.266L173.505 209C165.789 196.202 162 179.41 162 160.275C162 125.48 171.576 89.2132 189.786 61.2071C205.942 36.3694 229.258 19 256 19L255.433 54.3386Z" fill="#309AFF"/>
<path d="M28.3205 43.2855C28.3205 44.8208 28.6557 45.9996 29.0939 46.7127C29.6684 47.6468 30.5252 48.0425 31.3988 48.0425C32.5255 48.0425 33.5563 47.7614 35.5426 44.9998C37.134 42.7863 39.009 39.6792 40.2707 37.7314L42.4073 34.4314C43.8915 32.1395 45.6094 29.5918 47.5791 27.8649C49.1871 26.4554 50.9217 25.6724 52.6674 25.6724C55.5983 25.6724 58.39 27.3797 60.5266 30.5818C62.8649 34.0888 64 38.506 64 43.0645C64 45.7744 63.4686 47.7656 62.5645 49.3387C61.6909 50.8601 59.9883 52.3801 57.1242 52.3801V48.0425C59.5766 48.0425 60.1886 45.7772 60.1886 43.1848C60.1886 39.4904 59.3318 35.3906 57.4441 32.4612C56.1046 30.3833 54.3686 29.1136 52.4588 29.1136C50.3931 29.1136 48.7308 30.6797 46.8627 33.4721C45.8695 34.9557 44.8499 36.7637 43.7051 38.8039L42.4448 41.0482C39.9132 45.5605 39.2719 46.5883 38.0061 48.2844C35.7875 51.2544 33.8929 52.3801 31.3988 52.3801C28.4401 52.3801 26.5692 51.0922 25.4105 49.1514C24.4646 47.5699 24 45.4948 24 43.1302L28.3205 43.2855Z" fill="white"/>
<path d="M27.4453 30.8881C29.424 27.8188 32.2794 25.6724 35.5545 25.6724C37.4512 25.6724 39.3367 26.2373 41.3057 27.8551C43.4594 29.624 45.7549 32.5367 48.6187 37.3371L49.6455 39.0598C52.1244 43.2155 53.5348 45.3536 54.3601 46.3617C55.4217 47.6566 56.1651 48.0425 57.1308 48.0425C59.5805 48.0425 60.1919 45.7772 60.1919 43.1848L63.9992 43.0645C63.9992 45.7744 63.4684 47.7656 62.5652 49.3387C61.6926 50.8601 59.9918 52.3801 57.1308 52.3801C55.3522 52.3801 53.7765 51.9913 52.0341 50.3371C50.6946 49.0675 49.1286 46.812 47.9239 44.7844L44.3404 38.7605C42.5423 35.7374 40.893 33.4833 39.9384 32.4625C38.9116 31.3649 37.5915 30.0393 35.485 30.0393C33.7801 30.0393 32.3322 31.2432 31.1206 33.0848L27.4453 30.8881Z" fill="white"/>
<path d="M35.4994 30.0217C33.786 30.0217 32.331 31.2208 31.1133 33.055C29.3915 35.6468 28.3372 39.5073 28.3372 43.2147C28.3372 44.7438 28.6738 45.9179 29.1136 46.6281L25.416 49.057C24.4664 47.4818 24 45.4151 24 43.0601C24 38.7776 25.1786 34.314 27.4198 30.8671C29.4083 27.8101 32.2779 25.6724 35.5692 25.6724L35.4994 30.0217Z" fill="white"/>
</g>
</svg>
