<svg width="35" height="35" viewBox="0 0 35 35" fill="none" xmlns="http://www.w3.org/2000/svg">
<path d="M31.3391 0V10.0525C29.6911 8.76206 27.6053 7.9912 25.3376 7.9912C22.1299 7.9912 19.2879 9.53376 17.5318 11.9064C16.3257 13.5335 15.6772 15.4971 15.6803 17.5123C15.6803 17.5233 15.676 17.5165 15.6674 17.4996C15.6623 20.7632 12.9774 23.4075 9.66586 23.4075C6.35864 23.4075 3.67716 20.7709 3.66429 17.5131V17.4683C3.6763 14.2105 6.3595 11.5739 9.66586 11.5739C11.9147 11.5739 13.8752 12.7949 14.9018 14.6006C15.0237 14.1944 15.3078 13.3212 15.7061 12.5529C16.052 11.8861 16.4974 11.309 16.7421 11.0129C15.8393 10.0517 14.7445 9.28506 13.5265 8.76125C12.3085 8.23744 10.9938 7.96777 9.665 7.9692C4.39474 7.9692 0.109868 12.1323 0.00858286 17.305H0V35H3.66257V24.9492C5.3106 26.2396 7.39638 27.0105 9.66242 27.0105C12.8838 27.0105 15.7361 25.4552 17.4906 23.0657C18.6356 21.5121 19.3068 19.5964 19.3068 17.5267C19.3068 17.5097 19.3171 17.53 19.3343 17.5757C19.3343 17.5537 19.3326 17.5334 19.3326 17.5106C19.3326 14.2427 22.0192 11.5942 25.3341 11.5942C28.6405 11.5942 31.322 14.23 31.3357 17.486V17.5351C31.322 20.7912 28.6405 23.427 25.3341 23.427C23.0836 23.427 21.1231 22.2051 20.0956 20.3977C19.9806 20.7852 19.6922 21.6906 19.2802 22.4852C18.9455 23.1325 18.5163 23.6952 18.2674 23.9973C19.1699 24.9556 20.2636 25.7198 21.4798 26.242C22.696 26.7641 24.0085 27.033 25.335 27.0316C30.6053 27.0316 34.8901 22.8685 34.9914 17.6959H35V0H31.3391Z" fill="#55B76F"/>
</svg>
