<svg width="23" height="23" viewBox="0 0 23 23" fill="none" xmlns="http://www.w3.org/2000/svg">
<path d="M22.2981 9.79572L20.5956 8.09343C20.5135 8.01367 20.4481 7.91833 20.4034 7.81299C20.3586 7.70766 20.3353 7.59444 20.3348 7.47999V5.05691C20.3341 4.42264 20.0817 3.81457 19.6332 3.36607C19.1846 2.91758 18.5764 2.66527 17.9421 2.6645H15.5186C15.4042 2.66401 15.2909 2.64069 15.1856 2.59593C15.0803 2.55116 14.9849 2.48584 14.9051 2.40379L13.2025 0.701499C12.7499 0.252162 12.1379 0 11.5 0C10.8621 0 10.2501 0.252162 9.79745 0.701499L8.0949 2.40379C8.01511 2.48584 7.91975 2.55116 7.8144 2.59593C7.70905 2.64069 7.59584 2.66401 7.48137 2.6645H5.05793C4.42356 2.66527 3.8154 2.91758 3.36683 3.36607C2.91827 3.81457 2.66593 4.42264 2.66515 5.05691V7.47999C2.6647 7.59444 2.64141 7.70766 2.59663 7.81299C2.55186 7.91833 2.48651 8.01367 2.4044 8.09343L0.701856 9.79572C0.252302 10.2482 0 10.8602 0 11.498C0 12.1358 0.252302 12.7478 0.701856 13.2003L2.4044 14.9026C2.48651 14.9824 2.55186 15.0777 2.59663 15.183C2.64141 15.2884 2.6647 15.4016 2.66515 15.516V17.9391C2.66593 18.5734 2.91827 19.1814 3.36683 19.6299C3.8154 20.0784 4.42356 20.3307 5.05793 20.3315H7.48137C7.59584 20.332 7.70905 20.3553 7.8144 20.4001C7.91975 20.4449 8.01511 20.5102 8.0949 20.5922L9.79745 22.2945C10.021 22.5182 10.2864 22.6956 10.5785 22.8166C10.8706 22.9377 11.1838 23 11.5 23C11.8162 23 12.1294 22.9377 12.4215 22.8166C12.7136 22.6956 12.979 22.5182 13.2025 22.2945L14.9051 20.5922C14.9849 20.5102 15.0803 20.4449 15.1856 20.4001C15.2909 20.3553 15.4042 20.332 15.5186 20.3315H17.9421C18.5764 20.3307 19.1846 20.0784 19.6332 19.6299C20.0817 19.1814 20.3341 18.5734 20.3348 17.9391V15.516C20.3353 15.4016 20.3586 15.2884 20.4034 15.183C20.4481 15.0777 20.5135 14.9824 20.5956 14.9026L22.2981 13.2003C22.7477 12.7478 23 12.1358 23 11.498C23 10.8602 22.7477 10.2482 22.2981 9.79572ZM15.1045 9.99509L11.0245 14.0898C10.8769 14.228 10.6822 14.3048 10.48 14.3048C10.2778 14.3048 10.0831 14.228 9.9355 14.0898L7.89551 12.0348C7.7555 11.8919 7.67752 11.6996 7.67853 11.4996C7.67954 11.2996 7.75945 11.1081 7.9009 10.9666C8.04235 10.8252 8.2339 10.7453 8.43393 10.7443C8.63397 10.7433 8.82632 10.8213 8.96918 10.9613L10.4723 12.4642L14.0308 8.90623C14.1744 8.76614 14.367 8.68771 14.5677 8.68771C14.7683 8.68771 14.9609 8.76614 15.1045 8.90623C15.1773 8.97697 15.2352 9.06161 15.2748 9.15512C15.3143 9.24864 15.3347 9.34913 15.3347 9.45066C15.3347 9.55219 15.3143 9.65269 15.2748 9.7462C15.2352 9.83972 15.1773 9.92435 15.1045 9.99509Z" fill="#2AFFDF"/>
</svg>
