<svg width="718" height="369" viewBox="0 0 718 369" fill="none" xmlns="http://www.w3.org/2000/svg">
<g style="mix-blend-mode:color-dodge">
<path d="M126.589 -223.752H202.941V-349H204.281V-223.752H280.636V-349H281.976V-223.752H358.33V-349H359.67V-223.752H436.024V-349H437.364V-223.752H513.719V-349H515.059V-223.752H591.412V-349H592.752V-223.752H718V-222.412H592.752V-146.058H718V-144.718L592.752 -144.719V-68.3643L718 -68.3633V-67.0244H592.752V9.33008H718V10.6699H592.752V87.0244H718V88.3643H592.752V164.719H718V166.058H592.752V242.412H718V243.752H592.752V369H591.412V243.752H515.059V369H513.719V243.752H437.364V369H436.024V243.752H359.67V369H358.33V243.752H281.976V369H280.636V243.752H204.281V369H202.941V243.752H126.589V369H125.249V243.752H0V242.412H125.249V166.058H0V164.719H125.249V88.3643H0V87.0244H125.249V10.6699H0V9.33008H125.249V-67.0244H0V-68.3643H125.249V-144.719H0V-146.058H125.249V-222.412H0V-223.752H125.249V-349H126.589V-223.752ZM126.589 242.412H202.941V166.058H126.589V242.412ZM204.281 242.412H280.636V166.058H204.281V242.412ZM281.976 242.412H358.33V166.058H281.976V242.412ZM359.67 242.412H436.024V166.058H359.67V242.412ZM437.364 242.412H513.719V166.058H437.364V242.412ZM515.059 242.412H591.412V166.058H515.059V242.412ZM126.589 164.719H202.941V88.3643H126.589V164.719ZM204.281 164.719H280.636V88.3643H204.281V164.719ZM281.976 164.719H358.33V88.3643H281.976V164.719ZM359.67 164.719H436.024V88.3643H359.67V164.719ZM437.364 164.719H513.719V88.3643H437.364V164.719ZM515.059 164.719H591.412V88.3643H515.059V164.719ZM126.589 87.0244H202.941V10.6699H126.589V87.0244ZM204.281 87.0244H280.636V10.6699H204.281V87.0244ZM281.976 87.0244H358.33V10.6699H281.976V87.0244ZM359.67 87.0244H436.024V10.6699H359.67V87.0244ZM437.364 87.0244H513.719V10.6699H437.364V87.0244ZM515.059 87.0244H591.412V10.6699H515.059V87.0244ZM126.589 9.33008H202.941V-67.0244H126.589V9.33008ZM204.281 9.33008H280.636V-67.0244H204.281V9.33008ZM281.976 9.33008H358.33V-67.0244H281.976V9.33008ZM359.67 9.33008H436.024V-67.0244H359.67V9.33008ZM437.364 9.33008H513.719V-67.0244H437.364V9.33008ZM515.059 9.33008H591.412V-67.0244H515.059V9.33008ZM126.589 -68.3643H202.941V-144.719H126.589V-68.3643ZM204.281 -68.3643H280.636V-144.719H204.281V-68.3643ZM281.976 -68.3643H358.33V-144.719H281.976V-68.3643ZM359.67 -68.3643H436.024V-144.719H359.67V-68.3643ZM437.364 -68.3643H513.719V-144.719H437.364V-68.3643ZM515.059 -68.3643H591.412V-144.719H515.059V-68.3643ZM126.589 -146.058H202.941V-222.412H126.589V-146.058ZM204.281 -146.058H280.636V-222.412H204.281V-146.058ZM281.976 -146.058H358.33V-222.412H281.976V-146.058ZM359.67 -146.058H436.024V-222.412H359.67V-146.058ZM437.364 -146.058H513.719V-222.412H437.364V-146.058ZM515.059 -146.058H591.412V-222.412H515.059V-146.058Z" fill="url(#paint0_radial_4069_6512)"/>
</g>
<defs>
<radialGradient id="paint0_radial_4069_6512" cx="0" cy="0" r="1" gradientUnits="userSpaceOnUse" gradientTransform="translate(359 10) rotate(90) scale(359)">
<stop stop-color="#5C5C5C"/>
<stop offset="1" stop-color="#5C5C5C" stop-opacity="0"/>
</radialGradient>
</defs>
</svg>
