<svg width="6" height="6" viewBox="0 0 6 6" fill="none" xmlns="http://www.w3.org/2000/svg">
<path d="M0.144488 5.06148C-0.0475417 5.25351 -0.0475417 5.56485 0.144488 5.75688C0.336517 5.94891 0.647858 5.94891 0.839887 5.75688L0.492188 5.40918L0.144488 5.06148ZM5.90113 0.491961C5.90113 0.22039 5.68098 0.000239099 5.40941 0.000238857L0.983909 0.000239025C0.712339 0.000239025 0.492187 0.22039 0.492188 0.491961C0.492187 0.763531 0.712339 0.983683 0.983909 0.983683H4.91768V4.91746C4.91768 5.18903 5.13784 5.40918 5.40941 5.40918C5.68098 5.40918 5.90113 5.18903 5.90113 4.91746L5.90113 0.491961ZM0.492188 5.40918L0.839887 5.75688L5.75711 0.839661L5.40941 0.491961L5.06171 0.144261L0.144488 5.06148L0.492188 5.40918Z" fill="#000D0D"/>
</svg>
