<svg width="12" height="12" viewBox="0 0 12 12" fill="none" xmlns="http://www.w3.org/2000/svg">
<path d="M10.9831 8.29498L9.40581 6.71767C8.84249 6.15434 7.88483 6.3797 7.6595 7.112C7.4905 7.61901 6.92717 7.90068 6.42018 7.78799C5.29353 7.50633 3.77255 6.04168 3.49088 4.85869C3.32188 4.35168 3.65988 3.78835 4.16687 3.61937C4.8992 3.39404 5.12453 2.43639 4.5612 1.87306L2.98389 0.295746C2.53323 -0.0985821 1.85724 -0.0985821 1.46291 0.295746L0.392586 1.36607C-0.677734 2.49272 0.505252 5.47835 3.15289 8.12599C5.80052 10.7736 8.78615 12.013 9.91281 10.8863L10.9831 9.81597C11.3775 9.3653 11.3775 8.68931 10.9831 8.29498Z" fill="#2AFFDF"/>
</svg>
