<svg width="10" height="14" viewBox="0 0 10 14" fill="none" xmlns="http://www.w3.org/2000/svg">
<path d="M4.96154 0C3.64619 0.00174484 2.38522 0.525037 1.45513 1.45513C0.525037 2.38522 0.00174484 3.64619 0 4.96154C0 8.52351 4.6225 12.9848 4.81889 13.1729C4.85709 13.21 4.90827 13.2308 4.96154 13.2308C5.01481 13.2308 5.06598 13.21 5.10418 13.1729C5.30058 12.9848 9.92308 8.52351 9.92308 4.96154C9.92133 3.64619 9.39804 2.38522 8.46795 1.45513C7.53786 0.525037 6.27688 0.00174484 4.96154 0ZM4.96154 7.23558C4.51178 7.23558 4.07211 7.10221 3.69815 6.85233C3.32419 6.60246 3.03272 6.2473 2.8606 5.83178C2.68848 5.41625 2.64345 4.95902 2.7312 4.5179C2.81894 4.07678 3.03552 3.67158 3.35355 3.35355C3.67158 3.03552 4.07678 2.81894 4.5179 2.73119C4.95902 2.64345 5.41625 2.68848 5.83178 2.8606C6.2473 3.03272 6.60246 3.32419 6.85233 3.69815C7.10221 4.07211 7.23558 4.51178 7.23558 4.96154C7.23522 5.56454 6.99551 6.14274 6.56913 6.56913C6.14274 6.99551 5.56454 7.23522 4.96154 7.23558Z" fill="#2AFFDF"/>
</svg>
