<svg width="8" height="8" viewBox="0 0 8 8" fill="none" xmlns="http://www.w3.org/2000/svg">
<path d="M0.175345 6.17583C-0.0589693 6.41015 -0.0589693 6.79005 0.175345 7.02436C0.40966 7.25868 0.789559 7.25868 1.02387 7.02436L0.599609 6.6001L0.175345 6.17583ZM7.19961 0.600097C7.19961 0.268726 6.93098 9.72015e-05 6.59961 9.74438e-05L1.19961 9.7191e-05C0.868239 9.75281e-05 0.59961 0.268726 0.599609 0.600097C0.59961 0.931468 0.868239 1.2001 1.19961 1.2001H5.99961V6.0001C5.99961 6.33147 6.26824 6.6001 6.59961 6.6001C6.93098 6.6001 7.19961 6.33147 7.19961 6.0001L7.19961 0.600097ZM0.599609 6.6001L1.02387 7.02436L7.02387 1.02436L6.59961 0.600097L6.17535 0.175833L0.175345 6.17583L0.599609 6.6001Z" fill="#000D0D"/>
</svg>
