<svg width="24" height="15" viewBox="0 0 24 15" fill="none" xmlns="http://www.w3.org/2000/svg">
<path d="M23.1869 0.970742C22.9248 0.809428 22.6247 0.72176 22.3177 0.716806C22.0107 0.711852 21.708 0.789792 21.4408 0.942565L17.1429 4.06628V2.88462C17.142 2.11984 16.8407 1.38665 16.305 0.845876C15.7694 0.3051 15.0432 0.000897789 14.2857 0H2.85714C2.09965 0.000897789 1.37345 0.3051 0.83782 0.845876C0.302194 1.38665 0.000889238 2.11984 0 2.88462V12.1154C0.000889238 12.8802 0.302194 13.6133 0.83782 14.1541C1.37345 14.6949 2.09965 14.9991 2.85714 15H14.2857C15.0432 14.9991 15.7694 14.6949 16.305 14.1541C16.8407 13.6133 17.142 12.8802 17.1429 12.1154V10.9318L21.5195 14.1036C21.7809 14.2354 22.0713 14.2975 22.3631 14.2842C22.6549 14.2708 22.9385 14.1824 23.187 14.0273C23.4355 13.8722 23.6406 13.6556 23.7829 13.398C23.9252 13.1404 23.9999 12.8503 24 12.5554V2.44291C24.0009 2.14772 23.9267 1.85724 23.7843 1.59941C23.6419 1.34159 23.4362 1.12509 23.1869 0.970742ZM16 12.1154C15.9995 12.5743 15.8187 13.0142 15.4973 13.3387C15.176 13.6631 14.7402 13.8457 14.2857 13.8462H2.85714C2.40264 13.8457 1.96689 13.6631 1.64551 13.3387C1.32412 13.0142 1.14335 12.5743 1.14286 12.1154V2.88462C1.14335 2.42574 1.32412 1.9858 1.64551 1.66133C1.96689 1.33686 2.40264 1.15435 2.85714 1.15385H14.2857C14.7402 1.15435 15.176 1.33686 15.4973 1.66133C15.8187 1.9858 15.9995 2.42574 16 2.88462V12.1154ZM22.8571 12.5554C22.8555 12.6464 22.8333 12.7359 22.7921 12.8169C22.751 12.898 22.692 12.9684 22.6197 13.0228C22.5474 13.0773 22.4637 13.1143 22.3751 13.131C22.2864 13.1478 22.1951 13.1438 22.1083 13.1194L17.1429 9.5119V5.48753L22.0301 1.92683C22.1173 1.8829 22.2141 1.86218 22.3114 1.86663C22.4086 1.87108 22.5032 1.90055 22.586 1.95224C22.6689 2.00394 22.7373 2.07615 22.7847 2.16202C22.8322 2.2479 22.8571 2.34458 22.8571 2.44291V12.5554Z" fill="#000D0D"/>
</svg>
