<svg width="20" height="20" viewBox="0 0 20 20" fill="none" xmlns="http://www.w3.org/2000/svg">
<path d="M19.6002 5.84427L14.1465 0.386996C13.6325 -0.129141 12.731 -0.128714 12.2179 0.386569L10.4001 2.20549C10.1422 2.46266 10.0002 2.80557 10.0002 3.17069C10.0002 3.5358 10.1422 3.87871 10.3997 4.13546L10.4542 4.18996C9.35724 4.94768 6.93943 6.35461 4.09114 6.35461C3.8883 6.35461 3.70983 6.48918 3.65392 6.68465L0.0174463 19.4203C-0.027852 19.5789 0.0165514 19.7499 0.133313 19.8667C0.219861 19.9534 0.335727 20 0.454705 20C0.496423 20 0.538611 19.9942 0.579435 19.9827L13.3067 16.3439C13.502 16.2879 13.6365 16.1093 13.6365 15.9064C13.6365 13.0562 15.0425 10.6368 15.7997 9.53908L15.8538 9.59316C16.1108 9.85123 16.4535 9.99338 16.8183 9.99338C17.1832 9.99338 17.5259 9.85123 17.7825 9.59363L19.6002 7.77471C19.8581 7.51753 20.0001 7.17462 20.0001 6.80951C20.0001 6.44435 19.8581 6.10144 19.6002 5.84427ZM12.7336 15.5646L2.01637 18.6265L7.26411 13.3788C7.53449 13.5384 7.84578 13.6363 8.18196 13.6363C9.1847 13.6363 10.0002 12.8209 10.0002 11.8181C10.0002 10.8154 9.18474 9.99995 8.18196 9.99995C7.17918 9.99995 6.36376 10.8154 6.36376 11.8181C6.36376 12.1543 6.46169 12.4656 6.62132 12.736L1.37358 17.9838L4.4355 7.2665C7.50483 7.15596 10.0419 5.60917 11.1069 4.85316L15.1469 8.89323C14.3909 9.95823 12.8441 12.4953 12.7336 15.5646ZM7.27288 11.8182C7.27288 11.317 7.68082 10.9091 8.18196 10.9091C8.6831 10.9091 9.09104 11.317 9.09104 11.8182C9.09104 12.3193 8.6831 12.7273 8.18196 12.7273C7.68082 12.7273 7.27288 12.3193 7.27288 11.8182ZM18.9579 7.13955L17.1393 8.95817C16.9688 9.12952 16.6683 9.12995 16.4969 8.95775L11.042 3.50278C10.9563 3.41755 10.9092 3.30347 10.9092 3.18185C10.9092 3.06023 10.9563 2.94616 11.0424 2.86046L12.861 1.04184C12.9462 0.956186 13.0603 0.909098 13.1819 0.909098C13.3036 0.909098 13.4176 0.956143 13.5033 1.04227L18.9579 6.49681L18.9583 6.49724C19.044 6.58246 19.091 6.69654 19.091 6.81816C19.091 6.93982 19.044 7.0539 18.9579 7.13955Z" fill="#000D0D"/>
</svg>
