<svg width="24" height="21" viewBox="0 0 24 21" fill="none" xmlns="http://www.w3.org/2000/svg">
<path d="M6.07094 13.777L1.97999 10.4694L6.07094 7.16177C6.38142 6.85914 6.38142 6.36817 6.07094 6.06554C5.76043 5.76291 5.25763 5.76291 4.94712 6.06554L0.225703 9.88226C0.0602053 10.0438 -0.00992737 10.2582 0.00112383 10.4694C-0.00992737 10.6806 0.0602053 10.895 0.225703 11.0565L4.94712 14.8732C5.25763 15.1758 5.76043 15.1758 6.07094 14.8732C6.38142 14.5706 6.38142 14.0796 6.07094 13.777ZM17.3082 0.103724C16.9315 -0.109842 16.4493 0.0170147 16.2318 0.38665L6.38068 19.3692C6.16318 19.7388 6.25301 20.3039 6.66914 20.4245C7.17826 20.5718 7.52815 20.5112 7.74566 20.1416L17.5967 1.159C17.815 0.788551 17.6857 0.316479 17.3082 0.103724ZM23.4214 9.88226L18.7008 6.06481C18.3903 5.76217 17.8875 5.76217 17.577 6.06481C17.2665 6.36744 17.2665 6.85841 17.577 7.16104L21.6679 10.4686L17.577 13.7762C17.2665 14.0789 17.2665 14.5698 17.577 14.8725C17.8875 15.1751 18.3903 15.1751 18.7008 14.8725L23.4222 11.0558C23.5877 10.8942 23.6579 10.6798 23.6468 10.4687C23.6579 10.2582 23.5869 10.0438 23.4214 9.88226Z" fill="#000D0D"/>
</svg>
