<svg width="22" height="22" viewBox="0 0 22 22" fill="none" xmlns="http://www.w3.org/2000/svg">
<path d="M16.7694 15.9842C18.3374 14.2293 19.2035 11.9576 19.202 9.60394C19.202 4.30582 14.8918 0 9.601 0C4.3045 0 0 4.31151 0 9.60394C0 14.8964 4.30997 19.2079 9.601 19.2079C11.9539 19.2096 14.2249 18.3433 15.9793 16.7745L21.0402 21.8372C21.1455 21.9432 21.2891 22.0019 21.4382 22C21.5869 21.9993 21.7296 21.941 21.8362 21.8372C21.9411 21.7325 22 21.5904 22 21.4419C22 21.2937 21.9411 21.1515 21.8362 21.0469L16.7694 15.9842ZM1.11526 9.60394C1.11526 4.92823 4.92102 1.1213 9.59531 1.1213C14.2698 1.1213 18.0754 4.92823 18.0754 9.60394C18.0754 14.2797 14.2698 18.0866 9.59531 18.0866C4.92102 18.0866 1.11526 14.2797 1.11526 9.60394Z" fill="#000D0D"/>
</svg>
