<svg width="19" height="19" viewBox="0 0 19 19" fill="none" xmlns="http://www.w3.org/2000/svg">
<path d="M0.666063 0.000128998C0.486961 0.00328296 0.316385 0.0771913 0.191594 0.205701C0.0668039 0.334211 -0.00205922 0.506852 4.69273e-05 0.685969V18.3109C-0.000640905 18.4907 0.0701148 18.6634 0.196752 18.791C0.323389 18.9187 0.495536 18.9908 0.675331 18.9915H18.3069C18.3972 18.9935 18.4869 18.9775 18.5709 18.9443C18.6549 18.9111 18.7315 18.8615 18.796 18.7984C18.8606 18.7352 18.9119 18.6598 18.9469 18.5765C18.982 18.4933 19 18.4039 19 18.3136C19 18.2233 18.982 18.1339 18.9469 18.0506C18.9119 17.9674 18.8606 17.8919 18.796 17.8288C18.7315 17.7656 18.6549 17.716 18.5709 17.6829C18.4869 17.6497 18.3972 17.6336 18.3069 17.6356H1.35724V0.685969C1.35831 0.595154 1.34112 0.505093 1.3067 0.421048C1.27228 0.337002 1.22132 0.260682 1.15685 0.196709C1.09238 0.132736 1.01572 0.0823832 0.93141 0.0486093C0.847102 0.0148354 0.756867 -0.00164188 0.666063 0.000128998ZM18.291 4.40801C18.1153 4.4136 17.9487 4.4872 17.8262 4.61327L10.8695 11.57L7.95781 8.36705C7.83684 8.2346 7.66831 8.15547 7.48913 8.14701C7.30995 8.13856 7.13472 8.20146 7.00182 8.32193L2.9329 12.0505C2.86716 12.1107 2.81391 12.1833 2.77619 12.264C2.73848 12.3448 2.71704 12.4321 2.7131 12.5211C2.70916 12.6101 2.72279 12.6991 2.75322 12.7828C2.78365 12.8666 2.83028 12.9435 2.89045 13.0093C2.95062 13.075 3.02315 13.1283 3.10389 13.166C3.18464 13.2037 3.27202 13.2251 3.36104 13.229C3.45007 13.2329 3.539 13.2193 3.62275 13.1888C3.7065 13.1584 3.78344 13.1118 3.84917 13.0516L7.41758 9.78369L10.3451 13.0065C10.4067 13.0744 10.4813 13.1291 10.5646 13.1673C10.6479 13.2055 10.738 13.2264 10.8296 13.2288C10.9211 13.2312 11.0122 13.215 11.0974 13.1812C11.1825 13.1474 11.2599 13.0967 11.325 13.0322L18.7822 5.57099C18.8791 5.47568 18.9452 5.35344 18.9717 5.22013C18.9983 5.08683 18.9842 4.94864 18.9312 4.82345C18.8783 4.69827 18.7889 4.59187 18.6747 4.51811C18.5606 4.44434 18.4269 4.40483 18.291 4.40801Z" fill="#000D0D"/>
</svg>
